# MagicaVoxel @ Ephtracy

# group
o 

# material
mtllib ordinary_panda.mtl
usemtl palette

# normals
vn -1 0 0
vn 1 0 0
vn 0 0 1
vn 0 0 -1
vn 0 -1 0
vn 0 1 0

# texcoords
vt 0.00195313 0.5
vt 0.130859 0.5
vt 0.904297 0.5
vt 0.990234 0.5
vt 0.994141 0.5

# verts
v -1 2.1 0.3
v -1 2.1 -0.2
v -1 2.3 0.3
v -1 2.3 -0.2
v -0.9 0 1
v -0.9 0 0.4
v -0.9 0 -0.3
v -0.9 0 -0.9
v -0.9 1 0.4
v -0.9 1 -0.3
v -0.9 1.5 0.4
v -0.9 1.5 -0.3
v -0.9 1.7 0.2
v -0.9 1.7 0.0999999
v -0.9 1.7 -1.19209e-07
v -0.9 1.7 -0.1
v -0.9 1.8 1
v -0.9 1.8 0.4
v -0.9 1.8 0.2
v -0.9 1.8 0.0999999
v -0.9 1.8 -1.19209e-07
v -0.9 1.8 -0.1
v -0.9 1.8 -0.3
v -0.9 1.8 -0.9
v -0.9 1.9 0.2
v -0.9 1.9 0.0999999
v -0.9 1.9 -1.19209e-07
v -0.9 1.9 -0.1
v -0.9 2 0.2
v -0.9 2 0.0999999
v -0.9 2 -1.19209e-07
v -0.9 2 -0.1
v -0.9 2.1 0.3
v -0.9 2.1 -0.2
v -0.9 2.3 1
v -0.9 2.3 0.3
v -0.9 2.3 -0.2
v -0.9 2.3 -0.9
v 0.9 0 1
v 0.9 0 0.4
v 0.9 0 -0.3
v 0.9 0 -0.9
v 0.9 1 1
v 0.9 1 0.9
v 0.9 1 0.4
v 0.9 1 -0.3
v 0.9 1 -0.8
v 0.9 1 -0.9
v 0.9 2.3 0.7
v 0.9 2.3 -0.7
v 0.9 2.8 0.7
v 0.9 2.8 -0.7
v 1.2 2.8 0.7
v 1.2 2.8 0.3
v 1.2 2.8 -0.3
v 1.2 2.8 -0.7
v 1.2 3 0.7
v 1.2 3 0.3
v 1.2 3 -0.3
v 1.2 3 -0.7
v -0.4 0 1
v -0.4 0 0.4
v -0.4 0 -0.3
v -0.4 0 -0.9
v -0.4 1 1
v -0.4 1 0.9
v -0.4 1 0.4
v -0.4 1 -0.3
v -0.4 1 -0.8
v -0.4 1 -0.9
v 1.4 0 1
v 1.4 0 0.4
v 1.4 0 -0.3
v 1.4 0 -0.9
v 1.4 1 0.4
v 1.4 1 -0.3
v 1.4 1.4 0.5
v 1.4 1.4 -0.5
v 1.4 1.6 0.7
v 1.4 1.6 0.5
v 1.4 1.6 -0.5
v 1.4 1.6 -0.7
v 1.4 1.8 1
v 1.4 1.8 0.7
v 1.4 1.8 -0.7
v 1.4 1.8 -0.9
v 1.4 2.3 1
v 1.4 2.3 0.7
v 1.4 2.3 -0.7
v 1.4 2.3 -0.9
v 1.4 2.8 0.7
v 1.4 2.8 0.3
v 1.4 2.8 -0.3
v 1.4 2.8 -0.7
v 1.4 3 0.7
v 1.4 3 0.3
v 1.4 3 -0.3
v 1.4 3 -0.7
v 1.6 1.8 0.7
v 1.6 1.8 -0.7
v 1.6 1.9 0.2
v 1.6 1.9 0.0999999
v 1.6 1.9 -1.19209e-07
v 1.6 1.9 -0.1
v 1.6 2 0.3
v 1.6 2 0.2
v 1.6 2 0.0999999
v 1.6 2 -1.19209e-07
v 1.6 2 -0.1
v 1.6 2 -0.2
v 1.6 2.1 0.3
v 1.6 2.1 0.2
v 1.6 2.1 -0.1
v 1.6 2.1 -0.2
v 1.6 2.2 0.6
v 1.6 2.2 0.3
v 1.6 2.2 0.2
v 1.6 2.2 0.0999999
v 1.6 2.2 -1.19209e-07
v 1.6 2.2 -0.1
v 1.6 2.2 -0.2
v 1.6 2.2 -0.5
v 1.6 2.3 0.6
v 1.6 2.3 0.3
v 1.6 2.3 0.2
v 1.6 2.3 -0.1
v 1.6 2.3 -0.2
v 1.6 2.3 -0.5
v 1.6 2.4 0.5
v 1.6 2.4 0.2
v 1.6 2.4 -0.2
v 1.6 2.4 -0.5
v 1.6 2.7 0.5
v 1.6 2.7 0.2
v 1.6 2.7 -0.2
v 1.6 2.7 -0.5
v 1.6 2.8 0.7
v 1.6 2.8 -0.7
v -0.9 0 1
v -0.9 1.8 1
v -0.9 2.3 1
v -0.4 0 1
v -0.4 1 1
v 0.9 0 1
v 0.9 1 1
v 1.4 0 1
v 1.4 1.8 1
v 1.4 2.3 1
v 0.9 2.3 0.7
v 0.9 2.8 0.7
v 1.2 2.8 0.7
v 1.2 3 0.7
v 1.4 1.8 0.7
v 1.4 2.3 0.7
v 1.4 2.8 0.7
v 1.4 3 0.7
v 1.6 1.8 0.7
v 1.6 2.8 0.7
v -1 2.1 0.3
v -1 2.3 0.3
v -0.9 2.1 0.3
v -0.9 2.3 0.3
v -0.9 0 -0.3
v -0.9 1 -0.3
v -0.8 1 -0.3
v -0.4 0 -0.3
v -0.4 1 -0.3
v 0.9 0 -0.3
v 0.9 1 -0.3
v 1.2 2.8 -0.3
v 1.2 3 -0.3
v 1.3 1 -0.3
v 1.4 0 -0.3
v 1.4 1 -0.3
v 1.4 2.8 -0.3
v 1.4 3 -0.3
v -0.9 0 0.4
v -0.9 1 0.4
v -0.8 1 0.4
v -0.4 0 0.4
v -0.4 1 0.4
v 0.9 0 0.4
v 0.9 1 0.4
v 1.3 1 0.4
v 1.4 0 0.4
v 1.4 1 0.4
v 1.2 2.8 0.3
v 1.2 3 0.3
v 1.4 2.8 0.3
v 1.4 3 0.3
v -1 2.1 -0.2
v -1 2.3 -0.2
v -0.9 2.1 -0.2
v -0.9 2.3 -0.2
v 0.9 2.3 -0.7
v 0.9 2.8 -0.7
v 1.2 2.8 -0.7
v 1.2 3 -0.7
v 1.4 1.8 -0.7
v 1.4 2.3 -0.7
v 1.4 2.8 -0.7
v 1.4 3 -0.7
v 1.6 1.8 -0.7
v 1.6 2.8 -0.7
v -0.9 0 -0.9
v -0.9 1.8 -0.9
v -0.9 2.3 -0.9
v -0.4 0 -0.9
v -0.4 1 -0.9
v 0.9 0 -0.9
v 0.9 1 -0.9
v 1.4 0 -0.9
v 1.4 1.8 -0.9
v 1.4 2.3 -0.9
v -0.9 0 1
v -0.4 0 1
v 0.9 0 1
v 1.4 0 1
v -0.9 0 0.4
v -0.4 0 0.4
v 0.9 0 0.4
v 1.4 0 0.4
v -0.9 0 -0.3
v -0.4 0 -0.3
v 0.9 0 -0.3
v 1.4 0 -0.3
v -0.9 0 -0.9
v -0.4 0 -0.9
v 0.9 0 -0.9
v 1.4 0 -0.9
v -0.4 1 1
v 0.9 1 1
v -0.4 1 0.9
v 0.9 1 0.9
v -0.9 1 0.4
v -0.8 1 0.4
v -0.4 1 0.4
v 0.9 1 0.4
v 1.3 1 0.4
v 1.4 1 0.4
v -0.9 1 -0.3
v -0.8 1 -0.3
v -0.4 1 -0.3
v 0.9 1 -0.3
v 1.3 1 -0.3
v 1.4 1 -0.3
v -0.4 1 -0.8
v 0.9 1 -0.8
v -0.4 1 -0.9
v 0.9 1 -0.9
v 1.4 1.8 0.7
v 1.6 1.8 0.7
v 1.4 1.8 -0.7
v 1.6 1.8 -0.7
v -1 2.1 0.3
v -0.9 2.1 0.3
v -1 2.1 -0.2
v -0.9 2.1 -0.2
v -0.9 2.3 1
v 1.4 2.3 1
v 0.9 2.3 0.7
v 1.4 2.3 0.7
v -1 2.3 0.3
v -0.9 2.3 0.3
v -1 2.3 -0.2
v -0.9 2.3 -0.2
v 0.9 2.3 -0.7
v 1.4 2.3 -0.7
v -0.9 2.3 -0.9
v 1.4 2.3 -0.9
v 0.9 2.8 0.7
v 1.2 2.8 0.7
v 1.4 2.8 0.7
v 1.6 2.8 0.7
v 1.2 2.8 0.3
v 1.4 2.8 0.3
v 1.2 2.8 -0.3
v 1.4 2.8 -0.3
v 0.9 2.8 -0.7
v 1.2 2.8 -0.7
v 1.4 2.8 -0.7
v 1.6 2.8 -0.7
v 1.2 3 0.7
v 1.4 3 0.7
v 1.2 3 0.3
v 1.4 3 0.3
v 1.2 3 -0.3
v 1.4 3 -0.3
v 1.2 3 -0.7
v 1.4 3 -0.7

# faces
f 3/5/1 2/5/1 1/5/1
f 4/5/1 2/5/1 3/5/1
f 9/5/1 6/5/1 5/5/1
f 10/5/1 8/5/1 7/5/1
f 11/5/1 9/5/1 5/5/1
f 11/5/1 10/5/1 9/5/1
f 12/5/1 8/5/1 10/5/1
f 12/5/1 10/5/1 11/5/1
f 13/1/1 12/1/1 11/1/1
f 14/1/1 12/1/1 13/1/1
f 15/1/1 12/1/1 14/1/1
f 16/1/1 12/1/1 15/1/1
f 17/5/1 11/5/1 5/5/1
f 18/1/1 13/1/1 11/1/1
f 18/5/1 11/5/1 17/5/1
f 19/4/1 14/4/1 13/4/1
f 19/1/1 13/1/1 18/1/1
f 20/1/1 15/1/1 14/1/1
f 20/4/1 14/4/1 19/4/1
f 21/4/1 16/4/1 15/4/1
f 21/1/1 15/1/1 20/1/1
f 22/1/1 12/1/1 16/1/1
f 22/4/1 16/4/1 21/4/1
f 23/5/1 8/5/1 12/5/1
f 23/1/1 12/1/1 22/1/1
f 24/5/1 8/5/1 23/5/1
f 25/1/1 18/1/1 17/1/1
f 25/1/1 19/1/1 18/1/1
f 25/1/1 20/1/1 19/1/1
f 26/4/1 21/4/1 20/4/1
f 26/1/1 20/1/1 25/1/1
f 27/1/1 22/1/1 21/1/1
f 27/4/1 21/4/1 26/4/1
f 27/1/1 24/1/1 23/1/1
f 27/1/1 23/1/1 22/1/1
f 28/1/1 24/1/1 27/1/1
f 29/1/1 25/1/1 17/1/1
f 29/4/1 26/4/1 25/4/1
f 30/1/1 27/1/1 26/1/1
f 30/4/1 26/4/1 29/4/1
f 31/4/1 28/4/1 27/4/1
f 31/1/1 27/1/1 30/1/1
f 32/1/1 24/1/1 28/1/1
f 32/4/1 28/4/1 31/4/1
f 33/1/1 31/1/1 30/1/1
f 33/1/1 30/1/1 29/1/1
f 33/1/1 32/1/1 31/1/1
f 33/1/1 29/1/1 17/1/1
f 34/1/1 24/1/1 32/1/1
f 34/1/1 32/1/1 33/1/1
f 35/1/1 33/1/1 17/1/1
f 36/1/1 33/1/1 35/1/1
f 37/1/1 24/1/1 34/1/1
f 38/1/1 24/1/1 37/1/1
f 43/5/1 40/5/1 39/5/1
f 44/5/1 40/5/1 43/5/1
f 45/5/1 40/5/1 44/5/1
f 46/5/1 42/5/1 41/5/1
f 47/5/1 42/5/1 46/5/1
f 48/5/1 42/5/1 47/5/1
f 51/1/1 50/1/1 49/1/1
f 52/1/1 50/1/1 51/1/1
f 57/4/1 54/4/1 53/4/1
f 58/4/1 54/4/1 57/4/1
f 59/4/1 56/4/1 55/4/1
f 60/4/1 56/4/1 59/4/1
f 61/5/2 62/5/2 65/5/2
f 65/5/2 62/5/2 66/5/2
f 66/5/2 62/5/2 67/5/2
f 63/5/2 64/5/2 68/5/2
f 68/5/2 64/5/2 69/5/2
f 69/5/2 64/5/2 70/5/2
f 71/5/2 72/5/2 75/5/2
f 73/5/2 74/5/2 76/5/2
f 71/5/2 75/5/2 77/5/2
f 75/5/2 76/5/2 77/5/2
f 76/5/2 74/5/2 78/5/2
f 77/5/2 76/5/2 78/5/2
f 71/5/2 77/5/2 79/5/2
f 77/1/2 78/1/2 80/1/2
f 79/5/2 77/5/2 80/5/2
f 78/5/2 74/5/2 81/5/2
f 80/1/2 78/1/2 81/1/2
f 81/5/2 74/5/2 82/5/2
f 71/5/2 79/5/2 83/5/2
f 79/1/2 80/1/2 84/1/2
f 83/5/2 79/5/2 84/5/2
f 80/1/2 81/1/2 84/1/2
f 81/1/2 82/1/2 84/1/2
f 82/5/2 74/5/2 85/5/2
f 84/1/2 82/1/2 85/1/2
f 85/5/2 74/5/2 86/5/2
f 83/1/2 84/1/2 87/1/2
f 87/1/2 84/1/2 88/1/2
f 85/1/2 86/1/2 89/1/2
f 89/1/2 86/1/2 90/1/2
f 91/4/2 92/4/2 95/4/2
f 95/4/2 92/4/2 96/4/2
f 93/4/2 94/4/2 97/4/2
f 97/4/2 94/4/2 98/4/2
f 99/1/2 100/1/2 101/1/2
f 101/1/2 100/1/2 102/1/2
f 102/1/2 100/1/2 103/1/2
f 103/1/2 100/1/2 104/1/2
f 99/1/2 101/1/2 105/1/2
f 101/5/2 102/5/2 106/5/2
f 105/1/2 101/1/2 106/1/2
f 102/1/2 103/1/2 107/1/2
f 106/5/2 102/5/2 107/5/2
f 103/5/2 104/5/2 108/5/2
f 107/1/2 103/1/2 108/1/2
f 104/1/2 100/1/2 109/1/2
f 108/5/2 104/5/2 109/5/2
f 109/1/2 100/1/2 110/1/2
f 99/1/2 105/1/2 111/1/2
f 105/5/2 106/5/2 111/5/2
f 106/1/2 107/1/2 112/1/2
f 111/5/2 106/5/2 112/5/2
f 109/5/2 110/5/2 113/5/2
f 108/1/2 109/1/2 113/1/2
f 110/1/2 100/1/2 114/1/2
f 113/5/2 110/5/2 114/5/2
f 99/1/2 111/1/2 115/1/2
f 111/1/2 112/1/2 115/1/2
f 115/1/2 112/1/2 116/1/2
f 112/1/2 107/1/2 117/1/2
f 116/1/2 112/1/2 117/1/2
f 107/5/2 108/5/2 118/5/2
f 117/1/2 107/1/2 118/1/2
f 108/1/2 113/1/2 119/1/2
f 118/5/2 108/5/2 119/5/2
f 113/1/2 114/1/2 119/1/2
f 119/1/2 114/1/2 120/1/2
f 114/1/2 100/1/2 121/1/2
f 120/1/2 114/1/2 121/1/2
f 121/1/2 100/1/2 122/1/2
f 115/3/2 116/3/2 123/3/2
f 99/1/2 115/1/2 123/1/2
f 116/1/2 117/1/2 124/1/2
f 123/3/2 116/3/2 124/3/2
f 117/5/2 118/5/2 125/5/2
f 124/1/2 117/1/2 125/1/2
f 119/5/2 120/5/2 125/5/2
f 118/5/2 119/5/2 125/5/2
f 120/1/2 121/1/2 126/1/2
f 125/5/2 120/5/2 126/5/2
f 121/3/2 122/3/2 127/3/2
f 126/1/2 121/1/2 127/1/2
f 122/1/2 100/1/2 128/1/2
f 127/3/2 122/3/2 128/3/2
f 123/1/2 124/1/2 129/1/2
f 126/1/2 127/1/2 129/1/2
f 127/1/2 128/1/2 129/1/2
f 125/1/2 126/1/2 129/1/2
f 124/1/2 125/1/2 129/1/2
f 129/1/2 128/1/2 130/1/2
f 130/1/2 128/1/2 131/1/2
f 128/1/2 100/1/2 132/1/2
f 131/1/2 128/1/2 132/1/2
f 123/1/2 129/1/2 133/1/2
f 129/5/2 130/5/2 133/5/2
f 130/1/2 131/1/2 134/1/2
f 133/5/2 130/5/2 134/5/2
f 131/5/2 132/5/2 135/5/2
f 134/1/2 131/1/2 135/1/2
f 132/1/2 100/1/2 136/1/2
f 135/5/2 132/5/2 136/5/2
f 99/1/2 123/1/2 137/1/2
f 123/1/2 133/1/2 137/1/2
f 135/1/2 136/1/2 137/1/2
f 133/1/2 134/1/2 137/1/2
f 134/1/2 135/1/2 137/1/2
f 136/1/2 100/1/2 138/1/2
f 137/1/2 136/1/2 138/1/2
f 142/5/3 140/5/3 139/5/3
f 143/5/3 140/5/3 142/5/3
f 145/5/3 140/5/3 143/5/3
f 146/5/3 145/5/3 144/5/3
f 147/1/3 141/1/3 140/1/3
f 147/5/3 145/5/3 146/5/3
f 147/5/3 140/5/3 145/5/3
f 148/1/3 141/1/3 147/1/3
f 151/1/3 150/1/3 149/1/3
f 154/1/3 151/1/3 149/1/3
f 155/4/3 152/4/3 151/4/3
f 155/1/3 151/1/3 154/1/3
f 156/4/3 152/4/3 155/4/3
f 157/1/3 154/1/3 153/1/3
f 157/1/3 155/1/3 154/1/3
f 158/1/3 155/1/3 157/1/3
f 161/5/3 160/5/3 159/5/3
f 162/5/3 160/5/3 161/5/3
f 165/5/3 164/5/3 163/5/3
f 166/5/3 165/5/3 163/5/3
f 167/5/3 165/5/3 166/5/3
f 172/5/3 169/5/3 168/5/3
f 173/5/3 172/5/3 168/5/3
f 174/5/3 172/5/3 173/5/3
f 175/4/3 171/4/3 170/4/3
f 176/4/3 171/4/3 175/4/3
f 177/5/4 178/5/4 179/5/4
f 177/5/4 179/5/4 180/5/4
f 180/5/4 179/5/4 181/5/4
f 182/5/4 183/5/4 184/5/4
f 182/5/4 184/5/4 185/5/4
f 185/5/4 184/5/4 186/5/4
f 187/4/4 188/4/4 189/4/4
f 189/4/4 188/4/4 190/4/4
f 191/5/4 192/5/4 193/5/4
f 193/5/4 192/5/4 194/5/4
f 195/1/4 196/1/4 197/1/4
f 195/1/4 197/1/4 200/1/4
f 197/4/4 198/4/4 201/4/4
f 200/1/4 197/1/4 201/1/4
f 201/4/4 198/4/4 202/4/4
f 199/1/4 200/1/4 203/1/4
f 200/1/4 201/1/4 203/1/4
f 203/1/4 201/1/4 204/1/4
f 205/5/4 206/5/4 208/5/4
f 208/5/4 206/5/4 209/5/4
f 209/5/4 206/5/4 211/5/4
f 210/5/4 211/5/4 212/5/4
f 206/1/4 207/1/4 213/1/4
f 212/5/4 211/5/4 213/5/4
f 211/5/4 206/5/4 213/5/4
f 213/1/4 207/1/4 214/1/4
f 219/5/5 216/5/5 215/5/5
f 220/5/5 216/5/5 219/5/5
f 221/5/5 218/5/5 217/5/5
f 222/5/5 218/5/5 221/5/5
f 227/5/5 224/5/5 223/5/5
f 228/5/5 224/5/5 227/5/5
f 229/5/5 226/5/5 225/5/5
f 230/5/5 226/5/5 229/5/5
f 233/5/5 232/5/5 231/5/5
f 234/5/5 232/5/5 233/5/5
f 237/1/5 234/1/5 233/1/5
f 238/1/5 234/1/5 237/1/5
f 241/5/5 236/5/5 235/5/5
f 242/1/5 238/1/5 237/1/5
f 242/5/5 236/5/5 241/5/5
f 242/1/5 237/1/5 236/1/5
f 242/1/5 239/1/5 238/1/5
f 243/1/5 239/1/5 242/1/5
f 244/1/5 239/1/5 243/1/5
f 245/5/5 240/5/5 239/5/5
f 245/1/5 239/1/5 244/1/5
f 246/5/5 240/5/5 245/5/5
f 247/1/5 244/1/5 243/1/5
f 248/1/5 244/1/5 247/1/5
f 249/5/5 248/5/5 247/5/5
f 250/5/5 248/5/5 249/5/5
f 253/1/5 252/1/5 251/1/5
f 254/1/5 252/1/5 253/1/5
f 257/5/5 256/5/5 255/5/5
f 258/5/5 256/5/5 257/5/5
f 259/1/6 260/1/6 261/1/6
f 261/1/6 260/1/6 262/1/6
f 259/1/6 261/1/6 264/1/6
f 263/5/6 264/5/6 265/5/6
f 264/1/6 261/1/6 266/1/6
f 265/5/6 264/5/6 266/5/6
f 266/1/6 261/1/6 267/1/6
f 266/1/6 267/1/6 269/1/6
f 267/1/6 268/1/6 269/1/6
f 269/1/6 268/1/6 270/1/6
f 271/1/6 272/1/6 275/1/6
f 273/1/6 274/1/6 276/1/6
f 271/1/6 275/1/6 277/1/6
f 275/1/6 276/1/6 277/1/6
f 276/1/6 274/1/6 278/1/6
f 277/1/6 276/1/6 278/1/6
f 271/1/6 277/1/6 279/1/6
f 279/1/6 277/1/6 280/1/6
f 278/1/6 274/1/6 281/1/6
f 281/1/6 274/1/6 282/1/6
f 283/4/6 284/4/6 285/4/6
f 285/4/6 284/4/6 286/4/6
f 287/4/6 288/4/6 289/4/6
f 289/4/6 288/4/6 290/4/6
