# MagicaVoxel @ Ephtracy

# group
o 

# material
mtllib red_panda.mtl
usemtl palette

# normals
vn -1 0 0
vn 1 0 0
vn 0 0 1
vn 0 0 -1
vn 0 -1 0
vn 0 1 0

# texcoords
vt 0.00195313 0.5
vt 0.130859 0.5
vt 0.166016 0.5
vt 0.224609 0.5
vt 0.310547 0.5
vt 0.990234 0.5
vt 0.994141 0.5

# verts
v -1.1 2.2 0.4
v -1.1 2.2 -0.3
v -1.1 2.3 0.4
v -1.1 2.3 -0.3
v -1.1 2.4 0.4
v -1.1 2.4 -0.3
v -1.1 2.5 0.4
v -1.1 2.5 -0.3
v -1.1 2.6 0.4
v -1.1 2.6 -0.3
v -1.1 2.7 0.4
v -1.1 2.7 -0.3
v -1.1 2.8 0.4
v -1.1 2.8 -0.3
v -1.1 2.9 0.4
v -1.1 2.9 -0.3
v -1.1 3 0.4
v -1.1 3 -0.3
v -1.1 3.1 0.4
v -1.1 3.1 -0.3
v -1.1 3.2 0.4
v -1.1 3.2 0.3
v -1.1 3.2 -0.2
v -1.1 3.2 -0.3
v -1.1 3.3 0.3
v -1.1 3.3 -0.2
v -0.9 0 1
v -0.9 0 0.4
v -0.9 0 -0.3
v -0.9 0 -0.9
v -0.9 1 0.4
v -0.9 1 -0.3
v -0.9 1.5 0.4
v -0.9 1.5 -0.3
v -0.9 1.7 0.2
v -0.9 1.7 0.0999999
v -0.9 1.7 -1.19209e-07
v -0.9 1.7 -0.1
v -0.9 1.8 1
v -0.9 1.8 0.4
v -0.9 1.8 0.2
v -0.9 1.8 0.0999999
v -0.9 1.8 -1.19209e-07
v -0.9 1.8 -0.1
v -0.9 1.8 -0.3
v -0.9 1.8 -0.9
v -0.9 1.9 0.2
v -0.9 1.9 0.0999999
v -0.9 1.9 -1.19209e-07
v -0.9 1.9 -0.1
v -0.9 2 0.2
v -0.9 2 0.0999999
v -0.9 2 -1.19209e-07
v -0.9 2 -0.1
v -0.9 2.2 0.4
v -0.9 2.2 -0.3
v -0.9 2.3 1
v -0.9 2.3 0.4
v -0.9 2.3 -0.3
v -0.9 2.3 -0.9
v 0.9 0 1
v 0.9 0 0.4
v 0.9 0 -0.3
v 0.9 0 -0.9
v 0.9 1 1
v 0.9 1 0.9
v 0.9 1 0.4
v 0.9 1 -0.3
v 0.9 1 -0.8
v 0.9 1 -0.9
v 0.9 2.3 0.7
v 0.9 2.3 -0.7
v 0.9 2.8 0.7
v 0.9 2.8 -0.7
v 1.2 2.8 0.7
v 1.2 2.8 0.3
v 1.2 2.8 -0.3
v 1.2 2.8 -0.7
v 1.2 3 0.7
v 1.2 3 0.6
v 1.2 3 0.4
v 1.2 3 0.3
v 1.2 3 -0.3
v 1.2 3 -0.4
v 1.2 3 -0.6
v 1.2 3 -0.7
v 1.2 3.1 0.6
v 1.2 3.1 0.4
v 1.2 3.1 -0.4
v 1.2 3.1 -0.6
v -0.9 2.3 0.4
v -0.9 2.3 -0.3
v -0.9 2.4 0.4
v -0.9 2.4 -0.3
v -0.9 2.5 0.4
v -0.9 2.5 -0.3
v -0.9 2.6 0.4
v -0.9 2.6 -0.3
v -0.9 2.7 0.4
v -0.9 2.7 -0.3
v -0.9 2.8 0.4
v -0.9 2.8 -0.3
v -0.9 2.9 0.4
v -0.9 2.9 -0.3
v -0.9 3 0.4
v -0.9 3 -0.3
v -0.9 3.1 0.4
v -0.9 3.1 -0.3
v -0.9 3.2 0.4
v -0.9 3.2 0.3
v -0.9 3.2 -0.2
v -0.9 3.2 -0.3
v -0.9 3.3 0.3
v -0.9 3.3 -0.2
v -0.4 0 1
v -0.4 0 0.4
v -0.4 0 -0.3
v -0.4 0 -0.9
v -0.4 1 1
v -0.4 1 0.9
v -0.4 1 0.4
v -0.4 1 -0.3
v -0.4 1 -0.8
v -0.4 1 -0.9
v 1.4 0 1
v 1.4 0 0.4
v 1.4 0 -0.3
v 1.4 0 -0.9
v 1.4 1 0.4
v 1.4 1 -0.3
v 1.4 1.4 0.5
v 1.4 1.4 -0.5
v 1.4 1.6 0.7
v 1.4 1.6 0.5
v 1.4 1.6 -0.5
v 1.4 1.6 -0.7
v 1.4 1.8 1
v 1.4 1.8 0.7
v 1.4 1.8 -0.7
v 1.4 1.8 -0.9
v 1.4 2.3 1
v 1.4 2.3 0.7
v 1.4 2.3 -0.7
v 1.4 2.3 -0.9
v 1.4 2.8 0.7
v 1.4 2.8 0.6
v 1.4 2.8 0.4
v 1.4 2.8 0.3
v 1.4 2.8 -0.3
v 1.4 2.8 -0.4
v 1.4 2.8 -0.6
v 1.4 2.8 -0.7
v 1.4 2.9 0.6
v 1.4 2.9 0.4
v 1.4 2.9 -0.4
v 1.4 2.9 -0.6
v 1.4 3 0.7
v 1.4 3 0.6
v 1.4 3 0.4
v 1.4 3 0.3
v 1.4 3 -0.3
v 1.4 3 -0.4
v 1.4 3 -0.6
v 1.4 3 -0.7
v 1.4 3.1 0.6
v 1.4 3.1 0.4
v 1.4 3.1 -0.4
v 1.4 3.1 -0.6
v 1.6 1.8 0.7
v 1.6 1.8 0.5
v 1.6 1.8 0.4
v 1.6 1.8 0.3
v 1.6 1.8 -0.2
v 1.6 1.8 -0.3
v 1.6 1.8 -0.4
v 1.6 1.8 -0.7
v 1.6 1.9 0.6
v 1.6 1.9 0.5
v 1.6 1.9 0.4
v 1.6 1.9 0.3
v 1.6 1.9 0.2
v 1.6 1.9 0.0999999
v 1.6 1.9 -1.19209e-07
v 1.6 1.9 -0.1
v 1.6 1.9 -0.2
v 1.6 1.9 -0.3
v 1.6 1.9 -0.4
v 1.6 1.9 -0.5
v 1.6 2 0.3
v 1.6 2 0.2
v 1.6 2 0.0999999
v 1.6 2 -1.19209e-07
v 1.6 2 -0.1
v 1.6 2 -0.2
v 1.6 2.1 0.3
v 1.6 2.1 0.2
v 1.6 2.1 -0.1
v 1.6 2.1 -0.2
v 1.6 2.2 0.4
v 1.6 2.2 0.3
v 1.6 2.2 0.0999999
v 1.6 2.2 -1.19209e-07
v 1.6 2.2 -0.2
v 1.6 2.2 -0.3
v 1.6 2.3 0.3
v 1.6 2.3 -0.2
v 1.6 2.4 0.6
v 1.6 2.4 0.5
v 1.6 2.4 0.4
v 1.6 2.4 0.3
v 1.6 2.4 -0.2
v 1.6 2.4 -0.3
v 1.6 2.4 -0.4
v 1.6 2.4 -0.5
v 1.6 2.5 0.5
v 1.6 2.5 0.4
v 1.6 2.5 0.3
v 1.6 2.5 0.2
v 1.6 2.5 -0.1
v 1.6 2.5 -0.2
v 1.6 2.5 -0.3
v 1.6 2.5 -0.4
v 1.6 2.6 0.3
v 1.6 2.6 0.2
v 1.6 2.6 -0.1
v 1.6 2.6 -0.2
v 1.6 2.8 0.7
v 1.6 2.8 -0.7
v -0.9 0 1
v -0.9 1.8 1
v -0.9 2.3 1
v -0.4 0 1
v -0.4 1 1
v 0.9 0 1
v 0.9 1 1
v 1.4 0 1
v 1.4 1.8 1
v 1.4 2.3 1
v 0.9 2.3 0.7
v 0.9 2.8 0.7
v 1.2 2.8 0.7
v 1.2 3 0.7
v 1.4 1.8 0.7
v 1.4 2.3 0.7
v 1.4 2.8 0.7
v 1.4 3 0.7
v 1.6 1.8 0.7
v 1.6 2.8 0.7
v 1.2 3 0.6
v 1.2 3.1 0.6
v 1.4 3 0.6
v 1.4 3.1 0.6
v -1.1 2.2 0.4
v -1.1 2.3 0.4
v -1.1 2.4 0.4
v -1.1 2.5 0.4
v -1.1 2.6 0.4
v -1.1 2.7 0.4
v -1.1 2.8 0.4
v -1.1 2.9 0.4
v -1.1 3 0.4
v -1.1 3.1 0.4
v -1.1 3.2 0.4
v -0.9 2.2 0.4
v -0.9 2.3 0.4
v -0.9 2.4 0.4
v -0.9 2.5 0.4
v -0.9 2.6 0.4
v -0.9 2.7 0.4
v -0.9 2.8 0.4
v -0.9 2.9 0.4
v -0.9 3 0.4
v -0.9 3.1 0.4
v -0.9 3.2 0.4
v -1.1 3.2 0.3
v -1.1 3.3 0.3
v -0.9 3.2 0.3
v -0.9 3.3 0.3
v -0.9 0 -0.3
v -0.9 1 -0.3
v -0.8 1 -0.3
v -0.4 0 -0.3
v -0.4 1 -0.3
v 0.9 0 -0.3
v 0.9 1 -0.3
v 1.2 2.8 -0.3
v 1.2 3 -0.3
v 1.3 1 -0.3
v 1.4 0 -0.3
v 1.4 1 -0.3
v 1.4 2.8 -0.3
v 1.4 3 -0.3
v 1.2 3 -0.4
v 1.2 3.1 -0.4
v 1.4 3 -0.4
v 1.4 3.1 -0.4
v -0.9 0 0.4
v -0.9 1 0.4
v -0.8 1 0.4
v -0.4 0 0.4
v -0.4 1 0.4
v 0.9 0 0.4
v 0.9 1 0.4
v 1.2 3 0.4
v 1.2 3.1 0.4
v 1.3 1 0.4
v 1.4 0 0.4
v 1.4 1 0.4
v 1.4 3 0.4
v 1.4 3.1 0.4
v 1.2 2.8 0.3
v 1.2 3 0.3
v 1.4 2.8 0.3
v 1.4 3 0.3
v -1.1 3.2 -0.2
v -1.1 3.3 -0.2
v -0.9 3.2 -0.2
v -0.9 3.3 -0.2
v -1.1 2.2 -0.3
v -1.1 2.3 -0.3
v -1.1 2.4 -0.3
v -1.1 2.5 -0.3
v -1.1 2.6 -0.3
v -1.1 2.7 -0.3
v -1.1 2.8 -0.3
v -1.1 2.9 -0.3
v -1.1 3 -0.3
v -1.1 3.1 -0.3
v -1.1 3.2 -0.3
v -0.9 2.2 -0.3
v -0.9 2.3 -0.3
v -0.9 2.4 -0.3
v -0.9 2.5 -0.3
v -0.9 2.6 -0.3
v -0.9 2.7 -0.3
v -0.9 2.8 -0.3
v -0.9 2.9 -0.3
v -0.9 3 -0.3
v -0.9 3.1 -0.3
v -0.9 3.2 -0.3
v 1.2 3 -0.6
v 1.2 3.1 -0.6
v 1.4 3 -0.6
v 1.4 3.1 -0.6
v 0.9 2.3 -0.7
v 0.9 2.8 -0.7
v 1.2 2.8 -0.7
v 1.2 3 -0.7
v 1.4 1.8 -0.7
v 1.4 2.3 -0.7
v 1.4 2.8 -0.7
v 1.4 3 -0.7
v 1.6 1.8 -0.7
v 1.6 2.8 -0.7
v -0.9 0 -0.9
v -0.9 1.8 -0.9
v -0.9 2.3 -0.9
v -0.4 0 -0.9
v -0.4 1 -0.9
v 0.9 0 -0.9
v 0.9 1 -0.9
v 1.4 0 -0.9
v 1.4 1.8 -0.9
v 1.4 2.3 -0.9
v -0.9 0 1
v -0.4 0 1
v 0.9 0 1
v 1.4 0 1
v -0.9 0 0.4
v -0.4 0 0.4
v 0.9 0 0.4
v 1.4 0 0.4
v -0.9 0 -0.3
v -0.4 0 -0.3
v 0.9 0 -0.3
v 1.4 0 -0.3
v -0.9 0 -0.9
v -0.4 0 -0.9
v 0.9 0 -0.9
v 1.4 0 -0.9
v -0.4 1 1
v 0.9 1 1
v -0.4 1 0.9
v 0.9 1 0.9
v -0.9 1 0.4
v -0.8 1 0.4
v -0.4 1 0.4
v 0.9 1 0.4
v 1.3 1 0.4
v 1.4 1 0.4
v -0.9 1 -0.3
v -0.8 1 -0.3
v -0.4 1 -0.3
v 0.9 1 -0.3
v 1.3 1 -0.3
v 1.4 1 -0.3
v -0.4 1 -0.8
v 0.9 1 -0.8
v -0.4 1 -0.9
v 0.9 1 -0.9
v 1.4 1.8 0.7
v 1.6 1.8 0.7
v 1.5 1.8 0.5
v 1.6 1.8 0.5
v 1.5 1.8 0.4
v 1.6 1.8 0.4
v 1.5 1.8 0.3
v 1.6 1.8 0.3
v 1.5 1.8 -0.2
v 1.6 1.8 -0.2
v 1.5 1.8 -0.3
v 1.6 1.8 -0.3
v 1.5 1.8 -0.4
v 1.6 1.8 -0.4
v 1.4 1.8 -0.7
v 1.6 1.8 -0.7
v -1.1 2.2 0.4
v -0.9 2.2 0.4
v -1.1 2.2 -0.3
v -0.9 2.2 -0.3
v -0.9 2.3 1
v 1.4 2.3 1
v 0.9 2.3 0.7
v 1.4 2.3 0.7
v -0.9 2.3 0.4
v -0.9 2.3 -0.3
v 0.9 2.3 -0.7
v 1.4 2.3 -0.7
v -0.9 2.3 -0.9
v 1.4 2.3 -0.9
v 0.9 2.8 0.7
v 1.2 2.8 0.7
v 1.4 2.8 0.7
v 1.6 2.8 0.7
v 1.4 2.8 0.6
v 1.4 2.8 0.4
v 1.2 2.8 0.3
v 1.4 2.8 0.3
v 1.2 2.8 -0.3
v 1.4 2.8 -0.3
v 1.4 2.8 -0.4
v 1.4 2.8 -0.6
v 0.9 2.8 -0.7
v 1.2 2.8 -0.7
v 1.4 2.8 -0.7
v 1.6 2.8 -0.7
v 1.2 3 0.7
v 1.4 3 0.7
v 1.2 3 0.6
v 1.4 3 0.6
v 1.2 3 0.4
v 1.4 3 0.4
v 1.2 3 0.3
v 1.4 3 0.3
v 1.2 3 -0.3
v 1.4 3 -0.3
v 1.2 3 -0.4
v 1.4 3 -0.4
v 1.2 3 -0.6
v 1.4 3 -0.6
v 1.2 3 -0.7
v 1.4 3 -0.7
v 1.2 3.1 0.6
v 1.4 3.1 0.6
v 1.2 3.1 0.4
v 1.4 3.1 0.4
v 1.2 3.1 -0.4
v 1.4 3.1 -0.4
v 1.2 3.1 -0.6
v 1.4 3.1 -0.6
v -1.1 3.2 0.4
v -0.9 3.2 0.4
v -1.1 3.2 0.3
v -0.9 3.2 0.3
v -1.1 3.2 -0.2
v -0.9 3.2 -0.2
v -1.1 3.2 -0.3
v -0.9 3.2 -0.3
v -1.1 3.3 0.3
v -0.9 3.3 0.3
v -1.1 3.3 -0.2
v -0.9 3.3 -0.2

# faces
f 3/2/1 2/2/1 1/2/1
f 4/2/1 2/2/1 3/2/1
f 5/3/1 4/3/1 3/3/1
f 6/3/1 4/3/1 5/3/1
f 7/2/1 6/2/1 5/2/1
f 8/2/1 6/2/1 7/2/1
f 9/3/1 8/3/1 7/3/1
f 10/3/1 8/3/1 9/3/1
f 11/2/1 10/2/1 9/2/1
f 12/2/1 10/2/1 11/2/1
f 13/3/1 12/3/1 11/3/1
f 14/3/1 12/3/1 13/3/1
f 15/2/1 14/2/1 13/2/1
f 16/2/1 14/2/1 15/2/1
f 17/3/1 16/3/1 15/3/1
f 18/3/1 16/3/1 17/3/1
f 19/2/1 18/2/1 17/2/1
f 20/2/1 18/2/1 19/2/1
f 21/3/1 20/3/1 19/3/1
f 22/3/1 20/3/1 21/3/1
f 23/3/1 20/3/1 22/3/1
f 24/3/1 20/3/1 23/3/1
f 25/2/1 23/2/1 22/2/1
f 26/2/1 23/2/1 25/2/1
f 31/4/1 28/4/1 27/4/1
f 32/4/1 30/4/1 29/4/1
f 33/4/1 31/4/1 27/4/1
f 33/4/1 32/4/1 31/4/1
f 34/4/1 30/4/1 32/4/1
f 34/4/1 32/4/1 33/4/1
f 35/2/1 34/2/1 33/2/1
f 36/2/1 34/2/1 35/2/1
f 37/2/1 34/2/1 36/2/1
f 38/2/1 34/2/1 37/2/1
f 39/4/1 33/4/1 27/4/1
f 40/2/1 35/2/1 33/2/1
f 40/4/1 33/4/1 39/4/1
f 41/6/1 36/6/1 35/6/1
f 41/2/1 35/2/1 40/2/1
f 42/2/1 37/2/1 36/2/1
f 42/6/1 36/6/1 41/6/1
f 43/6/1 38/6/1 37/6/1
f 43/2/1 37/2/1 42/2/1
f 44/2/1 34/2/1 38/2/1
f 44/6/1 38/6/1 43/6/1
f 45/4/1 30/4/1 34/4/1
f 45/2/1 34/2/1 44/2/1
f 46/4/1 30/4/1 45/4/1
f 47/2/1 40/2/1 39/2/1
f 47/2/1 41/2/1 40/2/1
f 47/2/1 42/2/1 41/2/1
f 48/6/1 43/6/1 42/6/1
f 48/2/1 42/2/1 47/2/1
f 49/2/1 44/2/1 43/2/1
f 49/6/1 43/6/1 48/6/1
f 49/2/1 46/2/1 45/2/1
f 49/2/1 45/2/1 44/2/1
f 50/2/1 46/2/1 49/2/1
f 51/2/1 47/2/1 39/2/1
f 51/6/1 48/6/1 47/6/1
f 52/2/1 49/2/1 48/2/1
f 52/6/1 48/6/1 51/6/1
f 53/6/1 50/6/1 49/6/1
f 53/2/1 49/2/1 52/2/1
f 54/2/1 46/2/1 50/2/1
f 54/6/1 50/6/1 53/6/1
f 55/2/1 53/2/1 52/2/1
f 55/2/1 52/2/1 51/2/1
f 55/2/1 54/2/1 53/2/1
f 55/2/1 51/2/1 39/2/1
f 56/2/1 46/2/1 54/2/1
f 56/2/1 54/2/1 55/2/1
f 57/2/1 55/2/1 39/2/1
f 58/2/1 55/2/1 57/2/1
f 59/2/1 46/2/1 56/2/1
f 60/2/1 46/2/1 59/2/1
f 65/4/1 62/4/1 61/4/1
f 66/4/1 62/4/1 65/4/1
f 67/4/1 62/4/1 66/4/1
f 68/4/1 64/4/1 63/4/1
f 69/4/1 64/4/1 68/4/1
f 70/4/1 64/4/1 69/4/1
f 73/2/1 72/2/1 71/2/1
f 74/2/1 72/2/1 73/2/1
f 79/1/1 76/1/1 75/1/1
f 80/1/1 76/1/1 79/1/1
f 81/1/1 76/1/1 80/1/1
f 82/1/1 76/1/1 81/1/1
f 83/1/1 78/1/1 77/1/1
f 84/1/1 78/1/1 83/1/1
f 85/1/1 78/1/1 84/1/1
f 86/1/1 78/1/1 85/1/1
f 87/1/1 81/1/1 80/1/1
f 88/1/1 81/1/1 87/1/1
f 89/1/1 85/1/1 84/1/1
f 90/1/1 85/1/1 89/1/1
f 91/3/2 92/3/2 93/3/2
f 93/3/2 92/3/2 94/3/2
f 93/2/2 94/2/2 95/2/2
f 95/2/2 94/2/2 96/2/2
f 95/3/2 96/3/2 97/3/2
f 97/3/2 96/3/2 98/3/2
f 97/2/2 98/2/2 99/2/2
f 99/2/2 98/2/2 100/2/2
f 99/3/2 100/3/2 101/3/2
f 101/3/2 100/3/2 102/3/2
f 101/2/2 102/2/2 103/2/2
f 103/2/2 102/2/2 104/2/2
f 103/3/2 104/3/2 105/3/2
f 105/3/2 104/3/2 106/3/2
f 105/2/2 106/2/2 107/2/2
f 107/2/2 106/2/2 108/2/2
f 107/3/2 108/3/2 109/3/2
f 109/3/2 108/3/2 110/3/2
f 110/3/2 108/3/2 111/3/2
f 111/3/2 108/3/2 112/3/2
f 110/2/2 111/2/2 113/2/2
f 113/2/2 111/2/2 114/2/2
f 115/4/2 116/4/2 119/4/2
f 119/4/2 116/4/2 120/4/2
f 120/4/2 116/4/2 121/4/2
f 117/4/2 118/4/2 122/4/2
f 122/4/2 118/4/2 123/4/2
f 123/4/2 118/4/2 124/4/2
f 125/4/2 126/4/2 129/4/2
f 127/4/2 128/4/2 130/4/2
f 125/4/2 129/4/2 131/4/2
f 129/4/2 130/4/2 131/4/2
f 130/4/2 128/4/2 132/4/2
f 131/4/2 130/4/2 132/4/2
f 125/4/2 131/4/2 133/4/2
f 131/2/2 132/2/2 134/2/2
f 133/4/2 131/4/2 134/4/2
f 132/4/2 128/4/2 135/4/2
f 134/2/2 132/2/2 135/2/2
f 135/4/2 128/4/2 136/4/2
f 125/4/2 133/4/2 137/4/2
f 133/2/2 134/2/2 138/2/2
f 137/4/2 133/4/2 138/4/2
f 134/2/2 135/2/2 138/2/2
f 135/2/2 136/2/2 138/2/2
f 136/4/2 128/4/2 139/4/2
f 138/2/2 136/2/2 139/2/2
f 139/4/2 128/4/2 140/4/2
f 137/2/2 138/2/2 141/2/2
f 141/2/2 138/2/2 142/2/2
f 139/2/2 140/2/2 143/2/2
f 143/2/2 140/2/2 144/2/2
f 145/1/2 146/1/2 153/1/2
f 146/5/2 147/5/2 153/5/2
f 147/1/2 148/1/2 154/1/2
f 153/5/2 147/5/2 154/5/2
f 150/5/2 151/5/2 155/5/2
f 149/1/2 150/1/2 155/1/2
f 151/1/2 152/1/2 156/1/2
f 155/5/2 151/5/2 156/5/2
f 145/1/2 153/1/2 157/1/2
f 153/1/2 154/1/2 157/1/2
f 157/1/2 154/1/2 158/1/2
f 154/1/2 148/1/2 159/1/2
f 158/1/2 154/1/2 159/1/2
f 159/1/2 148/1/2 160/1/2
f 149/1/2 155/1/2 161/1/2
f 155/1/2 156/1/2 161/1/2
f 161/1/2 156/1/2 162/1/2
f 156/1/2 152/1/2 163/1/2
f 162/1/2 156/1/2 163/1/2
f 163/1/2 152/1/2 164/1/2
f 158/1/2 159/1/2 165/1/2
f 165/1/2 159/1/2 166/1/2
f 162/1/2 163/1/2 167/1/2
f 167/1/2 163/1/2 168/1/2
f 169/2/2 170/2/2 177/2/2
f 170/1/2 171/1/2 178/1/2
f 177/2/2 170/2/2 178/2/2
f 171/4/2 172/4/2 179/4/2
f 178/1/2 171/1/2 179/1/2
f 172/1/2 173/1/2 180/1/2
f 179/4/2 172/4/2 180/4/2
f 180/1/2 173/1/2 181/1/2
f 181/1/2 173/1/2 182/1/2
f 182/1/2 173/1/2 183/1/2
f 183/1/2 173/1/2 184/1/2
f 173/4/2 174/4/2 185/4/2
f 184/1/2 173/1/2 185/1/2
f 174/1/2 175/1/2 186/1/2
f 185/4/2 174/4/2 186/4/2
f 175/2/2 176/2/2 187/2/2
f 186/1/2 175/1/2 187/1/2
f 187/2/2 176/2/2 188/2/2
f 179/1/2 180/1/2 189/1/2
f 180/1/2 181/1/2 189/1/2
f 181/7/2 182/7/2 190/7/2
f 189/1/2 181/1/2 190/1/2
f 182/1/2 183/1/2 191/1/2
f 190/7/2 182/7/2 191/7/2
f 183/7/2 184/7/2 192/7/2
f 191/1/2 183/1/2 192/1/2
f 185/1/2 186/1/2 193/1/2
f 192/7/2 184/7/2 193/7/2
f 184/1/2 185/1/2 193/1/2
f 193/1/2 186/1/2 194/1/2
f 179/1/2 189/1/2 195/1/2
f 189/7/2 190/7/2 195/7/2
f 190/1/2 191/1/2 196/1/2
f 195/7/2 190/7/2 196/7/2
f 193/7/2 194/7/2 197/7/2
f 192/1/2 193/1/2 197/1/2
f 194/1/2 186/1/2 198/1/2
f 197/7/2 194/7/2 198/7/2
f 178/4/2 179/4/2 199/4/2
f 179/1/2 195/1/2 199/1/2
f 195/1/2 196/1/2 199/1/2
f 199/1/2 196/1/2 200/1/2
f 191/7/2 192/7/2 201/7/2
f 200/1/2 196/1/2 201/1/2
f 196/1/2 191/1/2 201/1/2
f 197/1/2 198/1/2 202/1/2
f 201/7/2 192/7/2 202/7/2
f 192/1/2 197/1/2 202/1/2
f 198/1/2 186/1/2 203/1/2
f 202/1/2 198/1/2 203/1/2
f 186/4/2 187/4/2 204/4/2
f 203/1/2 186/1/2 204/1/2
f 199/2/2 200/2/2 205/2/2
f 201/1/2 202/1/2 205/1/2
f 200/1/2 201/1/2 205/1/2
f 202/1/2 203/1/2 205/1/2
f 203/2/2 204/2/2 206/2/2
f 205/1/2 203/1/2 206/1/2
f 169/2/2 177/2/2 207/2/2
f 177/1/2 178/1/2 207/1/2
f 178/4/2 199/4/2 208/4/2
f 207/1/2 178/1/2 208/1/2
f 205/2/2 206/2/2 209/2/2
f 208/4/2 199/4/2 209/4/2
f 199/2/2 205/2/2 209/2/2
f 209/2/2 206/2/2 210/2/2
f 206/2/2 204/2/2 211/2/2
f 210/2/2 206/2/2 211/2/2
f 204/4/2 187/4/2 212/4/2
f 211/2/2 204/2/2 212/2/2
f 187/1/2 188/1/2 213/1/2
f 212/4/2 187/4/2 213/4/2
f 188/2/2 176/2/2 214/2/2
f 213/1/2 188/1/2 214/1/2
f 207/2/2 208/2/2 215/2/2
f 208/1/2 209/1/2 215/1/2
f 209/4/2 210/4/2 216/4/2
f 215/1/2 209/1/2 216/1/2
f 210/2/2 211/2/2 217/2/2
f 216/4/2 210/4/2 217/4/2
f 217/2/2 211/2/2 218/2/2
f 218/2/2 211/2/2 219/2/2
f 211/4/2 212/4/2 220/4/2
f 219/2/2 211/2/2 220/2/2
f 212/1/2 213/1/2 221/1/2
f 220/4/2 212/4/2 221/4/2
f 213/2/2 214/2/2 222/2/2
f 221/1/2 213/1/2 222/1/2
f 215/2/2 216/2/2 223/2/2
f 216/2/2 217/2/2 223/2/2
f 217/7/2 218/7/2 223/7/2
f 218/2/2 219/2/2 224/2/2
f 223/7/2 218/7/2 224/7/2
f 219/7/2 220/7/2 225/7/2
f 224/2/2 219/2/2 225/2/2
f 220/2/2 221/2/2 226/2/2
f 225/7/2 220/7/2 226/7/2
f 221/2/2 222/2/2 226/2/2
f 207/2/2 215/2/2 227/2/2
f 223/2/2 224/2/2 227/2/2
f 225/2/2 226/2/2 227/2/2
f 224/2/2 225/2/2 227/2/2
f 215/2/2 223/2/2 227/2/2
f 169/2/2 207/2/2 227/2/2
f 222/2/2 214/2/2 228/2/2
f 227/2/2 226/2/2 228/2/2
f 226/2/2 222/2/2 228/2/2
f 214/2/2 176/2/2 228/2/2
f 232/4/3 230/4/3 229/4/3
f 233/4/3 230/4/3 232/4/3
f 235/4/3 230/4/3 233/4/3
f 236/4/3 235/4/3 234/4/3
f 237/2/3 231/2/3 230/2/3
f 237/4/3 235/4/3 236/4/3
f 237/4/3 230/4/3 235/4/3
f 238/2/3 231/2/3 237/2/3
f 241/2/3 240/2/3 239/2/3
f 244/2/3 241/2/3 239/2/3
f 245/1/3 242/1/3 241/1/3
f 245/2/3 241/2/3 244/2/3
f 246/1/3 242/1/3 245/1/3
f 247/2/3 244/2/3 243/2/3
f 247/2/3 245/2/3 244/2/3
f 248/2/3 245/2/3 247/2/3
f 251/1/3 250/1/3 249/1/3
f 252/1/3 250/1/3 251/1/3
f 264/2/3 254/2/3 253/2/3
f 265/3/3 255/3/3 254/3/3
f 265/2/3 254/2/3 264/2/3
f 266/2/3 256/2/3 255/2/3
f 266/3/3 255/3/3 265/3/3
f 267/3/3 257/3/3 256/3/3
f 267/2/3 256/2/3 266/2/3
f 268/2/3 258/2/3 257/2/3
f 268/3/3 257/3/3 267/3/3
f 269/3/3 259/3/3 258/3/3
f 269/2/3 258/2/3 268/2/3
f 270/2/3 260/2/3 259/2/3
f 270/3/3 259/3/3 269/3/3
f 271/3/3 261/3/3 260/3/3
f 271/2/3 260/2/3 270/2/3
f 272/2/3 262/2/3 261/2/3
f 272/3/3 261/3/3 271/3/3
f 273/3/3 263/3/3 262/3/3
f 273/2/3 262/2/3 272/2/3
f 274/3/3 263/3/3 273/3/3
f 277/2/3 276/2/3 275/2/3
f 278/2/3 276/2/3 277/2/3
f 281/4/3 280/4/3 279/4/3
f 282/4/3 281/4/3 279/4/3
f 283/4/3 281/4/3 282/4/3
f 288/4/3 285/4/3 284/4/3
f 289/4/3 288/4/3 284/4/3
f 290/4/3 288/4/3 289/4/3
f 291/1/3 287/1/3 286/1/3
f 292/1/3 287/1/3 291/1/3
f 295/1/3 294/1/3 293/1/3
f 296/1/3 294/1/3 295/1/3
f 297/4/4 298/4/4 299/4/4
f 297/4/4 299/4/4 300/4/4
f 300/4/4 299/4/4 301/4/4
f 302/4/4 303/4/4 306/4/4
f 302/4/4 306/4/4 307/4/4
f 307/4/4 306/4/4 308/4/4
f 304/1/4 305/1/4 309/1/4
f 309/1/4 305/1/4 310/1/4
f 311/1/4 312/1/4 313/1/4
f 313/1/4 312/1/4 314/1/4
f 315/2/4 316/2/4 317/2/4
f 317/2/4 316/2/4 318/2/4
f 319/2/4 320/2/4 330/2/4
f 320/3/4 321/3/4 331/3/4
f 330/2/4 320/2/4 331/2/4
f 321/2/4 322/2/4 332/2/4
f 331/3/4 321/3/4 332/3/4
f 322/3/4 323/3/4 333/3/4
f 332/2/4 322/2/4 333/2/4
f 323/2/4 324/2/4 334/2/4
f 333/3/4 323/3/4 334/3/4
f 324/3/4 325/3/4 335/3/4
f 334/2/4 324/2/4 335/2/4
f 325/2/4 326/2/4 336/2/4
f 335/3/4 325/3/4 336/3/4
f 326/3/4 327/3/4 337/3/4
f 336/2/4 326/2/4 337/2/4
f 327/2/4 328/2/4 338/2/4
f 337/3/4 327/3/4 338/3/4
f 328/3/4 329/3/4 339/3/4
f 338/2/4 328/2/4 339/2/4
f 339/3/4 329/3/4 340/3/4
f 341/1/4 342/1/4 343/1/4
f 343/1/4 342/1/4 344/1/4
f 345/2/4 346/2/4 347/2/4
f 345/2/4 347/2/4 350/2/4
f 347/1/4 348/1/4 351/1/4
f 350/2/4 347/2/4 351/2/4
f 351/1/4 348/1/4 352/1/4
f 349/2/4 350/2/4 353/2/4
f 350/2/4 351/2/4 353/2/4
f 353/2/4 351/2/4 354/2/4
f 355/4/4 356/4/4 358/4/4
f 358/4/4 356/4/4 359/4/4
f 359/4/4 356/4/4 361/4/4
f 360/4/4 361/4/4 362/4/4
f 356/2/4 357/2/4 363/2/4
f 362/4/4 361/4/4 363/4/4
f 361/4/4 356/4/4 363/4/4
f 363/2/4 357/2/4 364/2/4
f 369/4/5 366/4/5 365/4/5
f 370/4/5 366/4/5 369/4/5
f 371/4/5 368/4/5 367/4/5
f 372/4/5 368/4/5 371/4/5
f 377/4/5 374/4/5 373/4/5
f 378/4/5 374/4/5 377/4/5
f 379/4/5 376/4/5 375/4/5
f 380/4/5 376/4/5 379/4/5
f 383/4/5 382/4/5 381/4/5
f 384/4/5 382/4/5 383/4/5
f 387/2/5 384/2/5 383/2/5
f 388/2/5 384/2/5 387/2/5
f 391/4/5 386/4/5 385/4/5
f 392/2/5 388/2/5 387/2/5
f 392/4/5 386/4/5 391/4/5
f 392/2/5 387/2/5 386/2/5
f 392/2/5 389/2/5 388/2/5
f 393/2/5 389/2/5 392/2/5
f 394/2/5 389/2/5 393/2/5
f 395/4/5 390/4/5 389/4/5
f 395/2/5 389/2/5 394/2/5
f 396/4/5 390/4/5 395/4/5
f 397/2/5 394/2/5 393/2/5
f 398/2/5 394/2/5 397/2/5
f 399/4/5 398/4/5 397/4/5
f 400/4/5 398/4/5 399/4/5
f 403/2/5 402/2/5 401/2/5
f 404/2/5 402/2/5 403/2/5
f 405/2/5 403/2/5 401/2/5
f 405/1/5 404/1/5 403/1/5
f 406/1/5 404/1/5 405/1/5
f 407/2/5 405/2/5 401/2/5
f 407/4/5 406/4/5 405/4/5
f 408/4/5 406/4/5 407/4/5
f 409/2/5 407/2/5 401/2/5
f 409/1/5 408/1/5 407/1/5
f 410/1/5 408/1/5 409/1/5
f 411/2/5 409/2/5 401/2/5
f 411/4/5 410/4/5 409/4/5
f 412/4/5 410/4/5 411/4/5
f 413/2/5 411/2/5 401/2/5
f 413/1/5 412/1/5 411/1/5
f 414/1/5 412/1/5 413/1/5
f 415/2/5 413/2/5 401/2/5
f 415/2/5 414/2/5 413/2/5
f 416/2/5 414/2/5 415/2/5
f 419/2/5 418/2/5 417/2/5
f 420/2/5 418/2/5 419/2/5
f 421/2/6 422/2/6 423/2/6
f 423/2/6 422/2/6 424/2/6
f 421/2/6 423/2/6 425/2/6
f 425/2/6 423/2/6 426/2/6
f 426/2/6 423/2/6 427/2/6
f 426/2/6 427/2/6 429/2/6
f 427/2/6 428/2/6 429/2/6
f 429/2/6 428/2/6 430/2/6
f 433/2/6 434/2/6 435/2/6
f 435/2/6 434/2/6 436/2/6
f 431/2/6 432/2/6 437/2/6
f 436/2/6 434/2/6 438/2/6
f 431/2/6 437/2/6 439/2/6
f 437/2/6 438/2/6 439/2/6
f 438/2/6 434/2/6 440/2/6
f 439/2/6 438/2/6 440/2/6
f 440/2/6 434/2/6 441/2/6
f 441/2/6 434/2/6 442/2/6
f 431/2/6 439/2/6 443/2/6
f 443/2/6 439/2/6 444/2/6
f 442/2/6 434/2/6 445/2/6
f 445/2/6 434/2/6 446/2/6
f 447/1/6 448/1/6 449/1/6
f 449/1/6 448/1/6 450/1/6
f 451/1/6 452/1/6 453/1/6
f 453/1/6 452/1/6 454/1/6
f 455/1/6 456/1/6 457/1/6
f 457/1/6 456/1/6 458/1/6
f 459/1/6 460/1/6 461/1/6
f 461/1/6 460/1/6 462/1/6
f 463/1/6 464/1/6 465/1/6
f 465/1/6 464/1/6 466/1/6
f 467/1/6 468/1/6 469/1/6
f 469/1/6 468/1/6 470/1/6
f 471/3/6 472/3/6 473/3/6
f 473/3/6 472/3/6 474/3/6
f 475/3/6 476/3/6 477/3/6
f 477/3/6 476/3/6 478/3/6
f 479/2/6 480/2/6 481/2/6
f 481/2/6 480/2/6 482/2/6
