# MagicaVoxel @ Ephtracy

# group
o 

# material
mtllib sakura.mtl
usemtl palette

# normals
vn -1 0 0
vn 1 0 0
vn 0 0 1
vn 0 0 -1
vn 0 -1 0
vn 0 1 0

# texcoords
vt 0.0136719 0.5
vt 0.0332031 0.5
vt 0.0371094 0.5
vt 0.0410156 0.5
vt 0.0449219 0.5
vt 0.0566406 0.5
vt 0.0683594 0.5
vt 0.310547 0.5

# verts
v -3.2 1.6 2
v -3.2 1.6 -1.2
v -3.2 4.4 2
v -3.2 4.4 -1.2
v -2.4 2.8 -1.2
v -2.4 2.8 -4
v -2.4 4.4 -1.2
v -2.4 5.2 0
v -2.4 5.2 -1.2
v -2.4 5.2 -1.6
v -2.4 5.2 -4
v -2.4 6.4 0
v -2.4 6.4 -1.6
v -2 2 5.2
v -2 2 2
v -2 4.4 5.2
v -2 4.4 2
v -1.2 4.4 2.8
v -1.2 4.4 2
v -1.2 4.4 1.2
v -1.2 4.8 1.2
v -1.2 4.8 0.4
v -1.2 7.2 2.8
v -1.2 7.2 0.4
v -0.8 0.4 -1.2
v -0.8 0.4 -3.2
v -0.8 1.2 -1.2
v -0.8 1.2 -2.4
v -0.8 2.8 -2.4
v -0.8 2.8 -3.2
v -0.8 5.2 -2.4
v -0.8 5.2 -3.2
v -0.8 6 -2.4
v -0.8 6 -3.2
v -0.4 -4.4 0.4
v -0.4 -4.4 -1.6
v -0.4 0.4 -1.2
v -0.4 0.4 -1.6
v -0.4 1.2 -1.2
v -0.4 1.2 -1.6
v -0.4 1.6 0.4
v -0.4 1.6 -1.2
v -0.4 2.8 -1.2
v -0.4 2.8 -1.6
v -0.4 4.4 0.4
v -0.4 4.4 -1.2
v -0.4 4.8 4.4
v -0.4 4.8 2.8
v -0.4 4.8 0.4
v -0.4 5.2 0
v -0.4 5.2 -1.2
v -0.4 5.2 -1.6
v -0.4 5.2 -2.4
v -0.4 6 -2.4
v -0.4 6.4 4.4
v -0.4 6.4 2.8
v -0.4 6.4 0
v -0.4 6.4 -1.6
v -0.4 7.2 0.4
v -0.4 7.6 0.4
v -0.4 7.6 -2.4
v 0.4 1.2 2.8
v 0.4 1.2 0.4
v 0.4 1.6 2
v 0.4 1.6 0.4
v 0.4 2 2.8
v 0.4 2 2
v 0.4 4.4 2.8
v 0.4 4.4 2
v 0.8 4 -2.4
v 0.8 4 -4.8
v 0.8 6.8 -2.4
v 0.8 6.8 -4.8
v 0.8 7.6 0
v 0.8 7.6 -2
v 0.8 8.4 0
v 0.8 8.4 -2
v 1.2 1.2 -1.6
v 1.2 1.2 -3.2
v 1.2 3.2 -1.6
v 1.2 3.2 -2.4
v 1.2 3.2 -3.2
v 1.2 6.8 -2.8
v 1.2 6.8 -4.8
v 1.2 8.4 -2.8
v 1.2 8.4 -4.8
v 1.6 7.2 2.4
v 1.6 7.2 0.8
v 1.6 8.4 2.4
v 1.6 8.4 0.8
v 2 3.6 4.4
v 2 3.6 2.8
v 2 4.8 4.4
v 2 4.8 2.8
v 3.2 4 -4.8
v 3.2 4 -6
v 3.2 6 -4.8
v 3.2 6 -6
v 4 0.4 -0.8
v 4 0.4 -1.6
v 4 3.2 0.8
v 4 3.2 -0.8
v 4 3.2 -1.6
v 4 3.2 -2.8
v 4 4.4 -0.8
v 4 4.4 -1.6
v 4 5.2 0.8
v 4 5.2 -0.4
v 4 5.2 -2
v 4 5.2 -2.8
v -0.4 2.8 -1.6
v -0.4 2.8 -2.4
v -0.4 2.8 -3.2
v -0.4 2.8 -4
v -0.4 3.2 -1.6
v -0.4 3.2 -2.4
v -0.4 4 -3.2
v -0.4 5.2 -3.2
v -0.4 5.2 -4
v 0 0.4 -1.6
v 0 0.4 -3.2
v 0 1.2 -1.6
v 0 1.2 -2.4
v 0 2 5.2
v 0 2 2
v 0 3.2 -2.4
v 0 3.2 -3.2
v 0 4.4 5.2
v 0 4.4 2.8
v 0 4.4 2
v 0.4 3.2 -2.4
v 0.4 3.2 -3.2
v 0.4 6 -2.4
v 0.4 6 -3.2
v 1.2 2 1.2
v 1.2 2 0.4
v 1.2 3.2 0.4
v 1.2 4.4 1.2
v 1.2 4.4 0.4
v 2 -4.4 0.4
v 2 -4.4 -1.6
v 2 -0.8 -0.8
v 2 -0.8 -1.6
v 2 0.4 -0.8
v 2 0.4 -1.6
v 2 1.2 2.8
v 2 1.2 0.4
v 2 1.2 -0.8
v 2 1.2 -1.6
v 2 2 1.2
v 2 2 0.4
v 2 2.4 2.8
v 2 2.4 1.2
v 2 3.2 0.4
v 2 3.2 -0.8
v 2 4.4 2.8
v 2 4.4 1.2
v 2 4.8 2.8
v 2 4.8 1.2
v 2.4 5.2 4.4
v 2.4 5.2 2.8
v 2.4 6.4 4.4
v 2.4 6.4 2.8
v 2.4 7.6 0
v 2.4 7.6 -2
v 2.4 8.4 0
v 2.4 8.4 -2
v 2.8 7.2 2.4
v 2.8 7.2 0.8
v 2.8 8.4 2.4
v 2.8 8.4 0.8
v 3.2 4 -2.4
v 3.2 4 -3.2
v 3.2 4.8 2.8
v 3.2 4.8 0.4
v 3.2 5.2 2.8
v 3.2 6 -3.2
v 3.2 6 -4.8
v 3.2 6.8 -2.4
v 3.2 6.8 -2.8
v 3.2 6.8 -4.8
v 3.2 7.2 2.8
v 3.2 7.2 0.4
v 3.2 8.4 -2.8
v 3.2 8.4 -4.8
v 3.6 1.2 -0.8
v 3.6 1.2 -3.2
v 3.6 3.2 0.4
v 3.6 3.2 -0.8
v 3.6 3.2 -2.4
v 3.6 3.2 -3.2
v 3.6 3.6 4.4
v 3.6 3.6 2.8
v 3.6 4.4 2.8
v 3.6 5.2 4.4
v 3.6 5.2 2.8
v 3.6 5.2 -0.4
v 3.6 5.2 -2
v 3.6 6.8 -0.4
v 3.6 6.8 -2
v 3.6 7.6 0.4
v 3.6 7.6 -2.4
v 4 2.4 2.8
v 4 2.4 1.2
v 4 4.4 2.8
v 4 4.4 1.2
v 4.4 5.2 -0.4
v 4.4 5.2 -2
v 4.4 6.8 -0.4
v 4.4 6.8 -2
v 4.8 4 -3.2
v 4.8 4 -6
v 4.8 6 -3.2
v 4.8 6 -6
v 5.2 -0.8 -0.8
v 5.2 -0.8 -1.6
v 5.2 3.2 -0.8
v 5.2 3.2 -1.6
v 6.4 3.2 0.8
v 6.4 3.2 -2.8
v 6.4 5.2 0.8
v 6.4 5.2 -2.8
v -2 2 5.2
v -2 4.4 5.2
v 0 2 5.2
v 0 4.4 5.2
v -0.4 4.8 4.4
v -0.4 6.4 4.4
v 2 3.6 4.4
v 2 4.8 4.4
v 2.4 5.2 4.4
v 2.4 6.4 4.4
v 3.6 3.6 4.4
v 3.6 5.2 4.4
v -1.2 4.4 2.8
v -1.2 7.2 2.8
v -0.4 4.8 2.8
v -0.4 6.4 2.8
v 0 4.4 2.8
v 0.4 1.2 2.8
v 0.4 2 2.8
v 0.4 4.4 2.8
v 1.2 2 2.8
v 1.2 4.4 2.8
v 1.2 4.8 2.8
v 1.2 6.4 2.8
v 1.2 7.2 2.8
v 2 1.2 2.8
v 2 2.4 2.8
v 2 3.6 2.8
v 2 4.8 2.8
v 2.4 5.2 2.8
v 2.4 6.4 2.8
v 3.2 5.2 2.8
v 3.2 7.2 2.8
v 3.6 3.6 2.8
v 3.6 4.4 2.8
v 4 2.4 2.8
v 4 4.4 2.8
v 1.6 7.2 2.4
v 1.6 8.4 2.4
v 2.8 7.2 2.4
v 2.8 8.4 2.4
v -3.2 1.6 2
v -3.2 4.4 2
v -2 2 2
v -2 4.4 2
v 0 2 2
v 0 4.4 2
v 0.4 1.6 2
v 0.4 2 2
v 0.4 4.4 2
v 4 3.2 0.8
v 4 5.2 0.8
v 6.4 3.2 0.8
v 6.4 5.2 0.8
v -0.4 -4.4 0.4
v -0.4 1.6 0.4
v -0.4 4.4 0.4
v -0.4 4.8 0.4
v -0.4 7.2 0.4
v -0.4 7.6 0.4
v 0.4 1.2 0.4
v 0.4 1.6 0.4
v 0.4 4.4 0.4
v 1.2 2 0.4
v 1.2 3.2 0.4
v 1.2 4.4 0.4
v 1.2 4.8 0.4
v 1.2 7.2 0.4
v 2 -4.4 0.4
v 2 1.2 0.4
v 2 2 0.4
v 2 3.2 0.4
v 3.2 4.8 0.4
v 3.2 7.2 0.4
v 3.6 3.2 0.4
v 3.6 7.6 0.4
v -2.4 5.2 0
v -2.4 6.4 0
v -0.4 5.2 0
v -0.4 6.4 0
v 0.8 7.6 0
v 0.8 8.4 0
v 2.4 7.6 0
v 2.4 8.4 0
v 3.6 5.2 -0.4
v 3.6 6.8 -0.4
v 4 5.2 -0.4
v 4.4 5.2 -0.4
v 4.4 6.8 -0.4
v 2 -0.8 -0.8
v 2 0.4 -0.8
v 2 1.2 -0.8
v 2 3.2 -0.8
v 3.6 1.2 -0.8
v 3.6 3.2 -0.8
v 4 0.4 -0.8
v 4 3.2 -0.8
v 5.2 -0.8 -0.8
v 5.2 3.2 -0.8
v -2.4 4.4 -1.2
v -2.4 5.2 -1.2
v -0.8 0.4 -1.2
v -0.8 1.2 -1.2
v -0.4 0.4 -1.2
v -0.4 1.2 -1.2
v -0.4 4.4 -1.2
v -0.4 5.2 -1.2
v -0.8 1.2 -2.4
v -0.8 2.8 -2.4
v -0.8 5.2 -2.4
v -0.8 6 -2.4
v -0.4 2.8 -2.4
v -0.4 3.2 -2.4
v -0.4 5.2 -2.4
v -0.4 6 -2.4
v 0 1.2 -2.4
v 0 3.2 -2.4
v 1.2 6.8 -2.8
v 1.2 8.4 -2.8
v 3.2 6.8 -2.8
v 3.2 8.4 -2.8
v 3.2 4 -3.2
v 3.2 6 -3.2
v 4.8 4 -3.2
v 4.8 6 -3.2
v 2 4.4 2.8
v 2 4.8 2.8
v 3.2 4.8 2.8
v 3.2 5.2 2.8
v 3.6 4.4 2.8
v 3.6 5.2 2.8
v -1.2 4.4 1.2
v -1.2 4.8 1.2
v 0.4 4.4 1.2
v 1.2 2 1.2
v 1.2 4.4 1.2
v 1.2 4.8 1.2
v 2 2 1.2
v 2 2.4 1.2
v 2 4.4 1.2
v 2 4.8 1.2
v 4 2.4 1.2
v 4 4.4 1.2
v 1.6 7.2 0.8
v 1.6 8.4 0.8
v 2.8 7.2 0.8
v 2.8 8.4 0.8
v -1.2 4.8 0.4
v -1.2 7.2 0.4
v -0.4 4.8 0.4
v -0.4 7.2 0.4
v -3.2 1.6 -1.2
v -3.2 4.4 -1.2
v -2.4 2.8 -1.2
v -2.4 4.4 -1.2
v -0.4 1.6 -1.2
v -0.4 2.8 -1.2
v -2.4 5.2 -1.6
v -2.4 6.4 -1.6
v -0.4 -4.4 -1.6
v -0.4 0.4 -1.6
v -0.4 1.2 -1.6
v -0.4 2.8 -1.6
v -0.4 3.2 -1.6
v -0.4 5.2 -1.6
v -0.4 6.4 -1.6
v 0 0.4 -1.6
v 0 1.2 -1.6
v 1.2 1.2 -1.6
v 1.2 3.2 -1.6
v 2 -4.4 -1.6
v 2 -0.8 -1.6
v 2 0.4 -1.6
v 2 1.2 -1.6
v 4 0.4 -1.6
v 4 3.2 -1.6
v 5.2 -0.8 -1.6
v 5.2 3.2 -1.6
v 0.8 7.6 -2
v 0.8 8.4 -2
v 2.4 7.6 -2
v 2.4 8.4 -2
v 3.6 5.2 -2
v 3.6 6.8 -2
v 4 5.2 -2
v 4.4 5.2 -2
v 4.4 6.8 -2
v -0.4 6 -2.4
v -0.4 7.6 -2.4
v 0.4 3.2 -2.4
v 0.4 6 -2.4
v 0.8 4 -2.4
v 0.8 6.8 -2.4
v 1.2 3.2 -2.4
v 3.2 4 -2.4
v 3.2 6.8 -2.4
v 3.6 3.2 -2.4
v 3.6 7.6 -2.4
v 4 3.2 -2.8
v 4 5.2 -2.8
v 6.4 3.2 -2.8
v 6.4 5.2 -2.8
v -0.8 0.4 -3.2
v -0.8 2.8 -3.2
v -0.8 5.2 -3.2
v -0.8 6 -3.2
v -0.4 2.8 -3.2
v -0.4 4 -3.2
v -0.4 5.2 -3.2
v 0 0.4 -3.2
v 0 3.2 -3.2
v 0 4 -3.2
v 0.4 3.2 -3.2
v 0.4 6 -3.2
v 1.2 1.2 -3.2
v 1.2 3.2 -3.2
v 3.6 1.2 -3.2
v 3.6 3.2 -3.2
v -2.4 2.8 -4
v -2.4 5.2 -4
v -0.4 2.8 -4
v -0.4 5.2 -4
v 0.8 4 -4.8
v 0.8 6.8 -4.8
v 1.2 6.8 -4.8
v 1.2 8.4 -4.8
v 3.2 4 -4.8
v 3.2 6 -4.8
v 3.2 6.8 -4.8
v 3.2 8.4 -4.8
v 3.2 4 -6
v 3.2 6 -6
v 4.8 4 -6
v 4.8 6 -6
v -0.4 -4.4 0.4
v 2 -4.4 0.4
v -0.4 -4.4 -1.6
v 2 -4.4 -1.6
v 2 -0.8 -0.8
v 5.2 -0.8 -0.8
v 2 -0.8 -1.6
v 5.2 -0.8 -1.6
v -0.8 0.4 -1.2
v -0.4 0.4 -1.2
v -0.4 0.4 -1.6
v 0 0.4 -1.6
v -0.8 0.4 -3.2
v 0 0.4 -3.2
v 0.4 1.2 2.8
v 2 1.2 2.8
v 0.4 1.2 0.4
v 2 1.2 0.4
v 2 1.2 -0.8
v 3.6 1.2 -0.8
v 1.2 1.2 -1.6
v 2 1.2 -1.6
v 1.2 1.2 -3.2
v 3.6 1.2 -3.2
v -3.2 1.6 2
v 0.4 1.6 2
v -0.4 1.6 0.4
v 0.4 1.6 0.4
v -3.2 1.6 -1.2
v -0.4 1.6 -1.2
v -2 2 5.2
v 0 2 5.2
v -2 2 2
v 0 2 2
v 2 2.4 2.8
v 4 2.4 2.8
v 2 2.4 1.2
v 4 2.4 1.2
v -2.4 2.8 -1.2
v -0.4 2.8 -1.2
v -0.4 2.8 -1.6
v -0.8 2.8 -2.4
v -0.4 2.8 -2.4
v -0.8 2.8 -3.2
v -0.4 2.8 -3.2
v -2.4 2.8 -4
v -0.4 2.8 -4
v 4 3.2 0.8
v 6.4 3.2 0.8
v 2 3.2 0.4
v 3.6 3.2 0.4
v 2 3.2 -0.8
v 3.6 3.2 -0.8
v 4 3.2 -0.8
v 5.2 3.2 -0.8
v -0.4 3.2 -1.6
v 1.2 3.2 -1.6
v 4 3.2 -1.6
v 5.2 3.2 -1.6
v -0.4 3.2 -2.4
v 0 3.2 -2.4
v 0.4 3.2 -2.4
v 1.2 3.2 -2.4
v 4 3.2 -2.8
v 6.4 3.2 -2.8
v 0 3.2 -3.2
v 0.4 3.2 -3.2
v 2 3.6 4.4
v 3.6 3.6 4.4
v 2 3.6 2.8
v 3.6 3.6 2.8
v 0.8 4 -2.4
v 3.2 4 -2.4
v 3.2 4 -3.2
v 4.8 4 -3.2
v 0.8 4 -4.8
v 3.2 4 -4.8
v 3.2 4 -6
v 4.8 4 -6
v 0 4.4 2.8
v 0.4 4.4 2.8
v 0 4.4 2
v 0.4 4.4 2
v -0.4 4.8 4.4
v 2 4.8 4.4
v -0.4 4.8 2.8
v 1.2 4.8 2.8
v 2 4.8 2.8
v 3.2 4.8 2.8
v -1.2 4.8 1.2
v 1.2 4.8 1.2
v 2 4.8 1.2
v -1.2 4.8 0.4
v -0.4 4.8 0.4
v 1.2 4.8 0.4
v 3.2 4.8 0.4
v -2.4 5.2 0
v -0.4 5.2 0
v 3.6 5.2 -0.4
v 4 5.2 -0.4
v -2.4 5.2 -1.2
v -0.4 5.2 -1.2
v 3.6 5.2 -2
v 4 5.2 -2
v 2 0.4 -0.8
v 4 0.4 -0.8
v 2 0.4 -1.6
v 4 0.4 -1.6
v -0.8 1.2 -1.2
v -0.4 1.2 -1.2
v -0.4 1.2 -1.6
v 0 1.2 -1.6
v -0.8 1.2 -2.4
v 0 1.2 -2.4
v 1.2 2 1.2
v 2 2 1.2
v 1.2 2 0.4
v 2 2 0.4
v 1.2 3.2 -2.4
v 3.6 3.2 -2.4
v 1.2 3.2 -3.2
v 3.6 3.2 -3.2
v -2 4.4 5.2
v 0 4.4 5.2
v -1.2 4.4 2.8
v 0 4.4 2.8
v 2 4.4 2.8
v 3.6 4.4 2.8
v 4 4.4 2.8
v -3.2 4.4 2
v -2 4.4 2
v -1.2 4.4 2
v -1.2 4.4 1.2
v 0.4 4.4 1.2
v 1.2 4.4 1.2
v 2 4.4 1.2
v 4 4.4 1.2
v -0.4 4.4 0.4
v 0.4 4.4 0.4
v 1.2 4.4 0.4
v -3.2 4.4 -1.2
v -2.4 4.4 -1.2
v -0.4 4.4 -1.2
v 2.4 5.2 4.4
v 3.6 5.2 4.4
v 2.4 5.2 2.8
v 3.2 5.2 2.8
v 3.6 5.2 2.8
v 4 5.2 0.8
v 6.4 5.2 0.8
v 4 5.2 -0.4
v 4.4 5.2 -0.4
v -2.4 5.2 -1.6
v -0.4 5.2 -1.6
v 4 5.2 -2
v 4.4 5.2 -2
v -0.8 5.2 -2.4
v -0.4 5.2 -2.4
v 4 5.2 -2.8
v 6.4 5.2 -2.8
v -0.8 5.2 -3.2
v -0.4 5.2 -3.2
v -2.4 5.2 -4
v -0.4 5.2 -4
v -0.8 6 -2.4
v -0.4 6 -2.4
v 0.4 6 -2.4
v -0.8 6 -3.2
v 0.4 6 -3.2
v 3.2 6 -3.2
v 4.8 6 -3.2
v 3.2 6 -4.8
v 3.2 6 -6
v 4.8 6 -6
v -0.4 6.4 4.4
v 2.4 6.4 4.4
v -0.4 6.4 2.8
v 1.2 6.4 2.8
v 2.4 6.4 2.8
v -2.4 6.4 0
v -0.4 6.4 0
v -2.4 6.4 -1.6
v -0.4 6.4 -1.6
v 3.6 6.8 -0.4
v 4.4 6.8 -0.4
v 3.6 6.8 -2
v 4.4 6.8 -2
v 0.8 6.8 -2.4
v 3.2 6.8 -2.4
v 1.2 6.8 -2.8
v 3.2 6.8 -2.8
v 0.8 6.8 -4.8
v 1.2 6.8 -4.8
v -1.2 7.2 2.8
v 1.2 7.2 2.8
v 3.2 7.2 2.8
v 1.6 7.2 2.4
v 2.8 7.2 2.4
v 1.6 7.2 0.8
v 2.8 7.2 0.8
v -1.2 7.2 0.4
v -0.4 7.2 0.4
v 1.2 7.2 0.4
v 3.2 7.2 0.4
v -0.4 7.6 0.4
v 3.6 7.6 0.4
v 0.8 7.6 0
v 2.4 7.6 0
v 0.8 7.6 -2
v 2.4 7.6 -2
v -0.4 7.6 -2.4
v 3.6 7.6 -2.4
v 1.6 8.4 2.4
v 2.8 8.4 2.4
v 1.6 8.4 0.8
v 2.8 8.4 0.8
v 0.8 8.4 0
v 2.4 8.4 0
v 0.8 8.4 -2
v 2.4 8.4 -2
v 1.2 8.4 -2.8
v 3.2 8.4 -2.8
v 1.2 8.4 -4.8
v 3.2 8.4 -4.8

# faces
f 3/2/1 2/2/1 1/2/1
f 4/2/1 2/2/1 3/2/1
f 7/1/1 6/1/1 5/1/1
f 9/1/1 6/1/1 7/1/1
f 10/1/1 6/1/1 9/1/1
f 11/1/1 6/1/1 10/1/1
f 12/3/1 9/3/1 8/3/1
f 12/3/1 10/3/1 9/3/1
f 13/3/1 10/3/1 12/3/1
f 16/1/1 15/1/1 14/1/1
f 17/1/1 15/1/1 16/1/1
f 21/5/1 19/5/1 18/5/1
f 21/5/1 20/5/1 19/5/1
f 23/5/1 21/5/1 18/5/1
f 23/5/1 22/5/1 21/5/1
f 24/5/1 22/5/1 23/5/1
f 27/8/1 26/8/1 25/8/1
f 28/8/1 26/8/1 27/8/1
f 29/8/1 26/8/1 28/8/1
f 30/8/1 26/8/1 29/8/1
f 33/6/1 32/6/1 31/6/1
f 34/6/1 32/6/1 33/6/1
f 37/8/1 36/8/1 35/8/1
f 38/8/1 36/8/1 37/8/1
f 39/8/1 37/8/1 35/8/1
f 41/8/1 39/8/1 35/8/1
f 41/8/1 40/8/1 39/8/1
f 42/8/1 40/8/1 41/8/1
f 43/8/1 40/8/1 42/8/1
f 44/8/1 40/8/1 43/8/1
f 49/5/1 46/5/1 45/5/1
f 50/5/1 46/5/1 49/5/1
f 51/5/1 46/5/1 50/5/1
f 54/5/1 53/5/1 52/5/1
f 55/2/1 48/2/1 47/2/1
f 56/2/1 48/2/1 55/2/1
f 57/5/1 50/5/1 49/5/1
f 58/5/1 54/5/1 52/5/1
f 59/5/1 58/5/1 57/5/1
f 59/5/1 57/5/1 49/5/1
f 60/5/1 58/5/1 59/5/1
f 61/5/1 54/5/1 58/5/1
f 61/5/1 58/5/1 60/5/1
f 64/8/1 63/8/1 62/8/1
f 65/8/1 63/8/1 64/8/1
f 66/8/1 64/8/1 62/8/1
f 67/8/1 64/8/1 66/8/1
f 68/7/1 67/7/1 66/7/1
f 69/7/1 67/7/1 68/7/1
f 72/6/1 71/6/1 70/6/1
f 73/6/1 71/6/1 72/6/1
f 76/1/1 75/1/1 74/1/1
f 77/1/1 75/1/1 76/1/1
f 80/2/1 79/2/1 78/2/1
f 81/2/1 79/2/1 80/2/1
f 82/2/1 79/2/1 81/2/1
f 85/4/1 84/4/1 83/4/1
f 86/4/1 84/4/1 85/4/1
f 89/3/1 88/3/1 87/3/1
f 90/3/1 88/3/1 89/3/1
f 93/2/1 92/2/1 91/2/1
f 94/2/1 92/2/1 93/2/1
f 97/7/1 96/7/1 95/7/1
f 98/7/1 96/7/1 97/7/1
f 102/8/1 100/8/1 99/8/1
f 103/8/1 100/8/1 102/8/1
f 105/6/1 102/6/1 101/6/1
f 105/8/1 103/8/1 102/8/1
f 106/6/1 104/6/1 103/6/1
f 106/8/1 103/8/1 105/8/1
f 107/6/1 105/6/1 101/6/1
f 107/6/1 106/6/1 105/6/1
f 108/6/1 106/6/1 107/6/1
f 109/6/1 104/6/1 106/6/1
f 109/6/1 106/6/1 108/6/1
f 110/6/1 104/6/1 109/6/1
f 111/1/2 112/1/2 115/1/2
f 115/1/2 112/1/2 116/1/2
f 113/1/2 114/1/2 117/1/2
f 117/1/2 114/1/2 118/1/2
f 118/1/2 114/1/2 119/1/2
f 120/8/2 121/8/2 122/8/2
f 122/8/2 121/8/2 123/8/2
f 123/8/2 121/8/2 126/8/2
f 126/8/2 121/8/2 127/8/2
f 124/1/2 125/1/2 128/1/2
f 128/1/2 125/1/2 129/1/2
f 129/1/2 125/1/2 130/1/2
f 131/6/2 132/6/2 133/6/2
f 133/6/2 132/6/2 134/6/2
f 135/7/2 136/7/2 137/7/2
f 135/7/2 137/7/2 138/7/2
f 138/7/2 137/7/2 139/7/2
f 140/8/2 141/8/2 142/8/2
f 142/8/2 141/8/2 143/8/2
f 140/8/2 142/8/2 144/8/2
f 140/8/2 144/8/2 147/8/2
f 144/8/2 145/8/2 147/8/2
f 147/8/2 145/8/2 148/8/2
f 148/8/2 145/8/2 149/8/2
f 146/8/2 147/8/2 150/8/2
f 147/8/2 148/8/2 150/8/2
f 150/8/2 148/8/2 151/8/2
f 146/8/2 150/8/2 152/8/2
f 152/8/2 150/8/2 153/8/2
f 151/8/2 148/8/2 154/8/2
f 154/8/2 148/8/2 155/8/2
f 156/8/2 157/8/2 158/8/2
f 158/8/2 157/8/2 159/8/2
f 160/2/2 161/2/2 162/2/2
f 162/2/2 161/2/2 163/2/2
f 164/1/2 165/1/2 166/1/2
f 166/1/2 165/1/2 167/1/2
f 168/3/2 169/3/2 170/3/2
f 170/3/2 169/3/2 171/3/2
f 174/6/2 175/6/2 176/6/2
f 172/6/2 173/6/2 177/6/2
f 172/6/2 177/6/2 179/6/2
f 177/6/2 178/6/2 179/6/2
f 179/6/2 178/6/2 180/6/2
f 180/6/2 178/6/2 181/6/2
f 176/6/2 175/6/2 182/6/2
f 182/6/2 175/6/2 183/6/2
f 180/4/2 181/4/2 184/4/2
f 184/4/2 181/4/2 185/4/2
f 186/2/2 187/2/2 189/2/2
f 189/2/2 187/2/2 190/2/2
f 190/2/2 187/2/2 191/2/2
f 192/2/2 193/2/2 194/2/2
f 192/2/2 194/2/2 195/2/2
f 195/2/2 194/2/2 196/2/2
f 188/5/2 189/5/2 197/5/2
f 189/5/2 190/5/2 197/5/2
f 197/5/2 190/5/2 198/5/2
f 188/5/2 197/5/2 199/5/2
f 198/5/2 190/5/2 200/5/2
f 188/5/2 199/5/2 201/5/2
f 199/5/2 200/5/2 201/5/2
f 200/5/2 190/5/2 202/5/2
f 201/5/2 200/5/2 202/5/2
f 203/6/2 204/6/2 205/6/2
f 205/6/2 204/6/2 206/6/2
f 207/3/2 208/3/2 209/3/2
f 209/3/2 208/3/2 210/3/2
f 211/7/2 212/7/2 213/7/2
f 213/7/2 212/7/2 214/7/2
f 215/8/2 216/8/2 217/8/2
f 217/8/2 216/8/2 218/8/2
f 219/6/2 220/6/2 221/6/2
f 221/6/2 220/6/2 222/6/2
f 225/1/3 224/1/3 223/1/3
f 226/1/3 224/1/3 225/1/3
f 230/2/3 228/2/3 227/2/3
f 231/2/3 228/2/3 230/2/3
f 231/2/3 230/2/3 229/2/3
f 232/2/3 228/2/3 231/2/3
f 233/2/3 231/2/3 229/2/3
f 234/2/3 231/2/3 233/2/3
f 237/5/3 236/5/3 235/5/3
f 238/5/3 236/5/3 237/5/3
f 239/5/3 237/5/3 235/5/3
f 242/5/3 237/5/3 239/5/3
f 243/8/3 241/8/3 240/8/3
f 243/7/3 242/7/3 241/7/3
f 244/5/3 237/5/3 242/5/3
f 244/7/3 242/7/3 243/7/3
f 245/5/3 237/5/3 244/5/3
f 246/5/3 236/5/3 238/5/3
f 247/5/3 236/5/3 246/5/3
f 248/8/3 245/8/3 244/8/3
f 248/8/3 243/8/3 240/8/3
f 248/8/3 244/8/3 243/8/3
f 249/8/3 245/8/3 248/8/3
f 250/8/3 245/8/3 249/8/3
f 251/8/3 245/8/3 250/8/3
f 253/6/3 247/6/3 246/6/3
f 254/6/3 253/6/3 252/6/3
f 255/6/3 247/6/3 253/6/3
f 255/6/3 253/6/3 254/6/3
f 256/6/3 250/6/3 249/6/3
f 258/6/3 256/6/3 249/6/3
f 258/6/3 257/6/3 256/6/3
f 259/6/3 257/6/3 258/6/3
f 262/3/3 261/3/3 260/3/3
f 263/3/3 261/3/3 262/3/3
f 266/2/3 265/2/3 264/2/3
f 267/2/3 265/2/3 266/2/3
f 268/2/3 266/2/3 264/2/3
f 270/2/3 268/2/3 264/2/3
f 270/2/3 269/2/3 268/2/3
f 271/2/3 269/2/3 270/2/3
f 272/2/3 269/2/3 271/2/3
f 275/6/3 274/6/3 273/6/3
f 276/6/3 274/6/3 275/6/3
f 283/8/3 278/8/3 277/8/3
f 284/8/3 278/8/3 283/8/3
f 285/5/3 280/5/3 279/5/3
f 288/5/3 280/5/3 285/5/3
f 289/5/3 280/5/3 288/5/3
f 290/5/3 282/5/3 281/5/3
f 291/8/3 283/8/3 277/8/3
f 292/8/3 283/8/3 291/8/3
f 293/8/3 287/8/3 286/8/3
f 294/5/3 289/5/3 288/5/3
f 294/8/3 287/8/3 293/8/3
f 294/5/3 288/5/3 287/5/3
f 295/5/3 289/5/3 294/5/3
f 296/5/3 282/5/3 290/5/3
f 297/5/3 295/5/3 294/5/3
f 297/5/3 296/5/3 295/5/3
f 298/5/3 282/5/3 296/5/3
f 298/5/3 296/5/3 297/5/3
f 301/3/3 300/3/3 299/3/3
f 302/3/3 300/3/3 301/3/3
f 305/1/3 304/1/3 303/1/3
f 306/1/3 304/1/3 305/1/3
f 309/3/3 308/3/3 307/3/3
f 310/3/3 308/3/3 309/3/3
f 311/3/3 308/3/3 310/3/3
f 316/2/3 315/2/3 314/2/3
f 317/2/3 315/2/3 316/2/3
f 318/8/3 313/8/3 312/8/3
f 320/8/3 318/8/3 312/8/3
f 320/8/3 319/8/3 318/8/3
f 321/8/3 319/8/3 320/8/3
f 326/8/3 325/8/3 324/8/3
f 327/8/3 325/8/3 326/8/3
f 328/1/3 323/1/3 322/1/3
f 329/1/3 323/1/3 328/1/3
f 334/8/3 331/8/3 330/8/3
f 336/6/3 333/6/3 332/6/3
f 337/6/3 333/6/3 336/6/3
f 338/8/3 335/8/3 334/8/3
f 338/8/3 334/8/3 330/8/3
f 339/8/3 335/8/3 338/8/3
f 342/4/3 341/4/3 340/4/3
f 343/4/3 341/4/3 342/4/3
f 346/7/3 345/7/3 344/7/3
f 347/7/3 345/7/3 346/7/3
f 348/2/4 349/2/4 350/2/4
f 348/2/4 350/2/4 352/2/4
f 350/2/4 351/2/4 352/2/4
f 352/2/4 351/2/4 353/2/4
f 354/5/4 355/5/4 356/5/4
f 356/5/4 355/5/4 358/5/4
f 358/5/4 355/5/4 359/5/4
f 357/8/4 358/8/4 360/8/4
f 358/8/4 359/8/4 360/8/4
f 360/8/4 359/8/4 361/8/4
f 361/8/4 359/8/4 362/8/4
f 362/8/4 359/8/4 363/8/4
f 361/6/4 362/6/4 364/6/4
f 364/6/4 362/6/4 365/6/4
f 366/3/4 367/3/4 368/3/4
f 368/3/4 367/3/4 369/3/4
f 370/5/4 371/5/4 372/5/4
f 372/5/4 371/5/4 373/5/4
f 374/2/4 375/2/4 376/2/4
f 376/2/4 375/2/4 377/2/4
f 374/2/4 376/2/4 378/2/4
f 378/2/4 376/2/4 379/2/4
f 380/3/4 381/3/4 387/3/4
f 387/3/4 381/3/4 388/3/4
f 382/8/4 383/8/4 389/8/4
f 385/8/4 386/8/4 390/8/4
f 384/8/4 385/8/4 390/8/4
f 390/8/4 386/8/4 391/8/4
f 389/8/4 390/8/4 391/8/4
f 391/8/4 386/8/4 392/8/4
f 382/8/4 389/8/4 393/8/4
f 389/8/4 391/8/4 393/8/4
f 393/8/4 391/8/4 394/8/4
f 394/8/4 391/8/4 395/8/4
f 395/8/4 391/8/4 396/8/4
f 394/8/4 395/8/4 397/8/4
f 394/8/4 397/8/4 399/8/4
f 397/8/4 398/8/4 399/8/4
f 399/8/4 398/8/4 400/8/4
f 401/1/4 402/1/4 403/1/4
f 403/1/4 402/1/4 404/1/4
f 405/3/4 406/3/4 407/3/4
f 407/3/4 406/3/4 408/3/4
f 408/3/4 406/3/4 409/3/4
f 410/5/4 411/5/4 413/5/4
f 412/5/4 413/5/4 414/5/4
f 413/5/4 411/5/4 415/5/4
f 414/5/4 413/5/4 415/5/4
f 412/5/4 414/5/4 416/5/4
f 416/5/4 414/5/4 417/5/4
f 415/5/4 411/5/4 418/5/4
f 416/5/4 417/5/4 419/5/4
f 417/5/4 418/5/4 419/5/4
f 418/5/4 411/5/4 420/5/4
f 419/5/4 418/5/4 420/5/4
f 421/6/4 422/6/4 423/6/4
f 423/6/4 422/6/4 424/6/4
f 425/8/4 426/8/4 429/8/4
f 427/6/4 428/6/4 431/6/4
f 429/8/4 430/8/4 432/8/4
f 425/8/4 429/8/4 432/8/4
f 432/8/4 430/8/4 433/8/4
f 430/6/4 431/6/4 434/6/4
f 433/8/4 430/8/4 434/8/4
f 433/6/4 434/6/4 435/6/4
f 434/6/4 431/6/4 436/6/4
f 435/6/4 434/6/4 436/6/4
f 431/6/4 428/6/4 436/6/4
f 437/2/4 438/2/4 439/2/4
f 439/2/4 438/2/4 440/2/4
f 441/1/4 442/1/4 443/1/4
f 443/1/4 442/1/4 444/1/4
f 445/6/4 446/6/4 447/6/4
f 445/6/4 447/6/4 449/6/4
f 449/6/4 447/6/4 450/6/4
f 447/4/4 448/4/4 451/4/4
f 450/6/4 447/6/4 451/6/4
f 451/4/4 448/4/4 452/4/4
f 453/7/4 454/7/4 455/7/4
f 455/7/4 454/7/4 456/7/4
f 459/8/5 458/8/5 457/8/5
f 460/8/5 458/8/5 459/8/5
f 463/8/5 462/8/5 461/8/5
f 464/8/5 462/8/5 463/8/5
f 467/8/5 466/8/5 465/8/5
f 469/8/5 467/8/5 465/8/5
f 469/8/5 468/8/5 467/8/5
f 470/8/5 468/8/5 469/8/5
f 473/8/5 472/8/5 471/8/5
f 474/8/5 472/8/5 473/8/5
f 478/2/5 476/2/5 475/2/5
f 479/2/5 478/2/5 477/2/5
f 480/2/5 476/2/5 478/2/5
f 480/2/5 478/2/5 479/2/5
f 483/2/5 482/2/5 481/2/5
f 484/2/5 482/2/5 483/2/5
f 485/2/5 483/2/5 481/2/5
f 486/2/5 483/2/5 485/2/5
f 489/1/5 488/1/5 487/1/5
f 490/1/5 488/1/5 489/1/5
f 493/6/5 492/6/5 491/6/5
f 494/6/5 492/6/5 493/6/5
f 497/1/5 496/1/5 495/1/5
f 498/1/5 497/1/5 495/1/5
f 499/1/5 497/1/5 498/1/5
f 500/1/5 498/1/5 495/1/5
f 502/1/5 500/1/5 495/1/5
f 502/1/5 501/1/5 500/1/5
f 503/1/5 501/1/5 502/1/5
f 508/5/5 507/5/5 506/5/5
f 509/5/5 507/5/5 508/5/5
f 510/6/5 505/6/5 504/6/5
f 511/6/5 505/6/5 510/6/5
f 515/6/5 505/6/5 511/6/5
f 516/5/5 513/5/5 512/5/5
f 517/5/5 513/5/5 516/5/5
f 518/5/5 513/5/5 517/5/5
f 519/5/5 513/5/5 518/5/5
f 520/6/5 515/6/5 514/6/5
f 521/6/5 505/6/5 515/6/5
f 521/6/5 515/6/5 520/6/5
f 522/6/5 518/6/5 517/6/5
f 523/6/5 518/6/5 522/6/5
f 526/2/5 525/2/5 524/2/5
f 527/2/5 525/2/5 526/2/5
f 530/6/5 529/6/5 528/6/5
f 532/6/5 530/6/5 528/6/5
f 533/7/5 531/7/5 530/7/5
f 533/6/5 530/6/5 532/6/5
f 534/7/5 531/7/5 533/7/5
f 535/7/5 531/7/5 534/7/5
f 538/5/5 537/5/5 536/5/5
f 539/5/5 537/5/5 538/5/5
f 542/2/5 541/2/5 540/2/5
f 543/2/5 541/2/5 542/2/5
f 544/2/5 541/2/5 543/2/5
f 548/6/5 545/6/5 544/6/5
f 549/5/5 547/5/5 546/5/5
f 550/5/5 547/5/5 549/5/5
f 551/6/5 548/6/5 547/6/5
f 551/5/5 547/5/5 550/5/5
f 552/6/5 545/6/5 548/6/5
f 552/6/5 548/6/5 551/6/5
f 557/3/5 554/3/5 553/3/5
f 558/3/5 554/3/5 557/3/5
f 559/3/5 556/3/5 555/3/5
f 560/3/5 556/3/5 559/3/5
f 561/8/6 562/8/6 563/8/6
f 563/8/6 562/8/6 564/8/6
f 565/8/6 566/8/6 567/8/6
f 565/8/6 567/8/6 569/8/6
f 567/8/6 568/8/6 569/8/6
f 569/8/6 568/8/6 570/8/6
f 571/8/6 572/8/6 573/8/6
f 573/8/6 572/8/6 574/8/6
f 575/2/6 576/2/6 577/2/6
f 577/2/6 576/2/6 578/2/6
f 579/1/6 580/1/6 581/1/6
f 581/1/6 580/1/6 582/1/6
f 579/1/6 581/1/6 587/1/6
f 587/1/6 581/1/6 588/1/6
f 586/2/6 587/2/6 589/2/6
f 587/2/6 588/2/6 589/2/6
f 583/6/6 584/6/6 592/6/6
f 584/6/6 585/6/6 592/6/6
f 592/6/6 585/6/6 593/6/6
f 589/2/6 590/2/6 594/2/6
f 590/7/6 591/7/6 595/7/6
f 594/2/6 590/2/6 595/2/6
f 595/7/6 591/7/6 596/7/6
f 589/2/6 594/2/6 597/2/6
f 586/2/6 589/2/6 597/2/6
f 597/2/6 594/2/6 598/2/6
f 598/2/6 594/2/6 599/2/6
f 600/2/6 601/2/6 602/2/6
f 602/2/6 601/2/6 603/2/6
f 603/2/6 601/2/6 604/2/6
f 605/6/6 606/6/6 607/6/6
f 607/6/6 606/6/6 608/6/6
f 608/6/6 606/6/6 612/6/6
f 609/1/6 610/1/6 613/1/6
f 613/1/6 610/1/6 614/1/6
f 611/6/6 612/6/6 615/6/6
f 612/6/6 606/6/6 616/6/6
f 615/6/6 612/6/6 616/6/6
f 609/1/6 613/1/6 617/1/6
f 609/1/6 617/1/6 619/1/6
f 617/1/6 618/1/6 619/1/6
f 619/1/6 618/1/6 620/1/6
f 621/6/6 622/6/6 624/6/6
f 622/6/6 623/6/6 624/6/6
f 624/6/6 623/6/6 625/6/6
f 626/7/6 627/7/6 628/7/6
f 628/7/6 627/7/6 629/7/6
f 629/7/6 627/7/6 630/7/6
f 631/2/6 632/2/6 633/2/6
f 633/2/6 632/2/6 634/2/6
f 634/2/6 632/2/6 635/2/6
f 636/3/6 637/3/6 638/3/6
f 638/3/6 637/3/6 639/3/6
f 640/3/6 641/3/6 642/3/6
f 642/3/6 641/3/6 643/3/6
f 644/6/6 645/6/6 646/6/6
f 646/6/6 645/6/6 647/6/6
f 644/6/6 646/6/6 648/6/6
f 648/6/6 646/6/6 649/6/6
f 651/6/6 652/6/6 653/6/6
f 653/6/6 652/6/6 654/6/6
f 651/6/6 653/6/6 655/6/6
f 654/6/6 652/6/6 656/6/6
f 650/5/6 651/5/6 657/5/6
f 657/5/6 651/5/6 658/5/6
f 655/6/6 656/6/6 659/6/6
f 658/5/6 651/5/6 659/5/6
f 651/6/6 655/6/6 659/6/6
f 656/6/6 652/6/6 660/6/6
f 659/6/6 656/6/6 660/6/6
f 661/5/6 662/5/6 663/5/6
f 663/5/6 662/5/6 664/5/6
f 661/5/6 663/5/6 665/5/6
f 664/5/6 662/5/6 666/5/6
f 661/5/6 665/5/6 667/5/6
f 665/5/6 666/5/6 667/5/6
f 666/5/6 662/5/6 668/5/6
f 667/5/6 666/5/6 668/5/6
f 669/3/6 670/3/6 671/3/6
f 671/3/6 670/3/6 672/3/6
f 673/1/6 674/1/6 675/1/6
f 675/1/6 674/1/6 676/1/6
f 677/4/6 678/4/6 679/4/6
f 679/4/6 678/4/6 680/4/6
