# Blender v2.93.5 OBJ File: 'star.blend'
# www.blender.org
mtllib star.mtl
o Circle
v 0.001290 -0.000398 -0.000009
v 0.002245 -0.003324 -0.000016
v 0.005292 -0.003306 -0.000037
v 0.002801 -0.005126 -0.000020
v 0.003763 -0.008011 -0.000026
v 0.001308 -0.006249 -0.000009
v -0.001184 -0.008011 0.000008
v -0.000234 -0.005101 0.000002
v -0.002713 -0.003306 0.000019
v 0.000350 -0.003309 -0.000002
v 0.002365 1.695225 0.279037
v 0.387471 0.515366 0.276349
v 1.615998 0.522823 0.267772
v 0.611533 -0.210964 0.274785
v 0.999645 -1.374162 0.272075
v 0.009861 -0.663731 0.278985
v -0.994915 -1.374162 0.286000
v -0.611800 -0.200970 0.283325
v -1.611268 0.522824 0.290302
v -0.376494 0.521613 0.281682
vt 0.000000 0.000000
vt 0.000000 0.000000
vt 0.000000 0.000000
vt 0.000000 0.000000
vt 0.000000 0.000000
vt 0.000000 0.000000
vt 0.000000 0.000000
vt 0.000000 0.000000
vt 0.000000 0.000000
vt 0.000000 0.000000
vt 0.000000 0.000000
vt 0.000000 0.000000
vt 0.000000 0.000000
vt 0.000000 0.000000
vt 0.000000 0.000000
vt 0.000000 0.000000
vt 0.000000 0.000000
vt 0.000000 0.000000
vt 0.000000 0.000000
vt 0.000000 0.000000
vn -0.2841 -0.3838 -0.8786
vn -0.2777 -0.3783 -0.8830
vn -0.0090 0.4754 -0.8797
vn -0.0057 0.4697 -0.8828
vn 0.2586 -0.3745 -0.8905
vn 0.2710 -0.3795 -0.8846
vn -0.4550 0.1449 -0.8786
vn -0.4540 0.1463 -0.8789
vn 0.4489 0.1518 -0.8806
vn 0.4398 0.1456 -0.8862
vn -0.0070 -0.0000 -1.0000
usemtl star
s off
f 9/1/1 8/2/1 18/3/1 19/4/1
f 6/5/2 5/6/2 15/7/2 16/8/2
f 3/9/3 2/10/3 12/11/3 13/12/3
f 10/13/4 9/1/4 19/4/4 20/14/4
f 7/15/5 6/5/5 16/8/5 17/16/5
f 4/17/6 3/9/6 13/12/6 14/18/6
f 1/19/7 10/13/7 20/14/7 11/20/7
f 8/2/8 7/15/8 17/16/8 18/3/8
f 5/6/9 4/17/9 14/18/9 15/7/9
f 2/10/10 1/19/10 11/20/10 12/11/10
f 2/10/11 3/9/11 4/17/11 5/6/11 6/5/11 7/15/11 8/2/11 9/1/11 10/13/11 1/19/11
o Circle.001
v -0.001290 -0.000257 0.566980
v -0.002277 -0.003281 0.566980
v -0.005425 -0.003262 0.566980
v -0.002851 -0.005143 0.566980
v -0.003846 -0.008124 0.566980
v -0.001309 -0.006303 0.566980
v 0.001266 -0.008124 0.566980
v 0.000284 -0.005117 0.566980
v 0.002846 -0.003262 0.566980
v -0.000319 -0.003265 0.566980
v -0.000417 1.695225 0.287933
v -0.385533 0.515366 0.287933
v -1.614090 0.522823 0.287933
v -0.609600 -0.210964 0.287933
v -0.997722 -1.374162 0.287933
v -0.007913 -0.663731 0.287933
v 0.996887 -1.374162 0.287933
v 0.613763 -0.200970 0.287933
v 1.613255 0.522824 0.287933
v 0.378451 0.521613 0.287933
vt 0.000000 0.000000
vt 0.000000 0.000000
vt 0.000000 0.000000
vt 0.000000 0.000000
vt 0.000000 0.000000
vt 0.000000 0.000000
vt 0.000000 0.000000
vt 0.000000 0.000000
vt 0.000000 0.000000
vt 0.000000 0.000000
vt 0.000000 0.000000
vt 0.000000 0.000000
vt 0.000000 0.000000
vt 0.000000 0.000000
vt 0.000000 0.000000
vt 0.000000 0.000000
vt 0.000000 0.000000
vt 0.000000 0.000000
vt 0.000000 0.000000
vt 0.000000 0.000000
vn 0.2780 -0.3839 0.8806
vn 0.2716 -0.3783 0.8849
vn 0.0029 0.4755 0.8797
vn -0.0005 0.4697 0.8828
vn -0.2648 -0.3745 0.8886
vn -0.2772 -0.3795 0.8827
vn 0.4488 0.1449 0.8818
vn 0.4479 0.1463 0.8820
vn -0.4550 0.1518 0.8774
vn -0.4460 0.1456 0.8831
vn 0.0000 0.0000 1.0000
usemtl star
s off
f 29/21/12 28/22/12 38/23/12 39/24/12
f 26/25/13 25/26/13 35/27/13 36/28/13
f 23/29/14 22/30/14 32/31/14 33/32/14
f 30/33/15 29/21/15 39/24/15 40/34/15
f 27/35/16 26/25/16 36/28/16 37/36/16
f 24/37/17 23/29/17 33/32/17 34/38/17
f 21/39/18 30/33/18 40/34/18 31/40/18
f 28/22/19 27/35/19 37/36/19 38/23/19
f 25/26/20 24/37/20 34/38/20 35/27/20
f 22/30/21 21/39/21 31/40/21 32/31/21
f 22/30/22 23/29/22 24/37/22 25/26/22 26/25/22 27/35/22 28/22/22 29/21/22 30/33/22 21/39/22
