# MagicaVoxel @ Ephtracy

# group
o 

# material
mtllib shop stand.mtl
usemtl palette

# normals
vn -1 0 0
vn 1 0 0
vn 0 0 1
vn 0 0 -1
vn 0 -1 0
vn 0 1 0

# texcoords
vt 0.373047 0.5
vt 0.841797 0.5
vt 0.958984 0.5

# verts
v -4 0 2
v -4 0 -2
v -4 1.6 2
v -4 1.6 -2
v -4 3.5 1.9
v -4 3.5 -1.9
v -4 3.9 1.9
v -4 3.9 -1.9
v -3.9 1.6 1.9
v -3.9 1.6 1.8
v -3.9 1.6 -1.8
v -3.9 1.6 -1.9
v -3.9 3.5 2
v -3.9 3.5 1.9
v -3.9 3.5 1.8
v -3.9 3.5 -1.8
v -3.9 3.5 -1.9
v -3.9 3.5 -2
v -3.9 3.9 2
v -3.9 3.9 1.9
v -3.9 3.9 -1.9
v -3.9 3.9 -2
v -3.9 4 1.9
v -3.9 4 -1.9
v -0.8 3.5 2
v -0.8 3.5 1.9
v -0.8 3.7 2
v -0.8 3.7 1.9
v 2.3 3.5 2
v 2.3 3.5 1.9
v 2.3 3.7 2
v 2.3 3.7 1.9
v 3.8 0 1.8
v 3.8 0 -1.8
v 3.8 1.5 1.8
v 3.8 1.5 0.6
v 3.8 1.6 1.9
v 3.8 1.6 1.8
v 3.8 1.6 0.6
v 3.8 1.6 -1.8
v 3.8 1.6 -1.9
v 3.8 2.5 -1.8
v 3.8 2.5 -1.9
v 3.8 3.5 1.9
v 3.8 3.8 1.9
v 3.8 3.8 1.8
v 3.8 3.8 -1.8
v 3.8 3.9 1.8
v 3.8 3.9 -1.8
v 3.9 3.5 1.8
v 3.9 3.5 -1.8
v 3.9 3.8 1.8
v 3.9 3.8 -1.8
v -3.9 3.5 1.8
v -3.9 3.5 -1.8
v -3.9 3.8 1.8
v -3.9 3.8 -1.8
v -3.8 0 1.8
v -3.8 0 -1.8
v -3.8 1.5 1.8
v -3.8 1.5 0.6
v -3.8 1.6 1.9
v -3.8 1.6 1.8
v -3.8 1.6 0.6
v -3.8 1.6 -1.8
v -3.8 1.6 -1.9
v -3.8 2.5 -1.8
v -3.8 2.5 -1.9
v -3.8 3.5 1.9
v -3.8 3.8 1.9
v -3.8 3.8 1.8
v -3.8 3.8 -1.8
v -3.8 3.9 1.8
v -3.8 3.9 -1.8
v -2.3 3.5 2
v -2.3 3.5 1.9
v -2.3 3.7 2
v -2.3 3.7 1.9
v 0.8 3.5 2
v 0.8 3.5 1.9
v 0.8 3.7 2
v 0.8 3.7 1.9
v 3.9 1.6 1.9
v 3.9 1.6 1.8
v 3.9 1.6 -1.8
v 3.9 1.6 -1.9
v 3.9 3.5 2
v 3.9 3.5 1.9
v 3.9 3.5 1.8
v 3.9 3.5 -1.8
v 3.9 3.5 -1.9
v 3.9 3.5 -2
v 3.9 3.9 2
v 3.9 3.9 1.9
v 3.9 3.9 -1.9
v 3.9 3.9 -2
v 3.9 4 1.9
v 3.9 4 -1.9
v 4 0 2
v 4 0 -2
v 4 1.6 2
v 4 1.6 -2
v 4 3.5 1.9
v 4 3.5 -1.9
v 4 3.9 1.9
v 4 3.9 -1.9
v -4 0 2
v -4 1.6 2
v -3.9 3.5 2
v -3.9 3.9 2
v -2.3 3.5 2
v -2.3 3.7 2
v -2.3 3.9 2
v -0.8 3.5 2
v -0.8 3.7 2
v -0.8 3.9 2
v 0.8 3.5 2
v 0.8 3.7 2
v 0.8 3.9 2
v 2.3 3.5 2
v 2.3 3.7 2
v 2.3 3.9 2
v 3.9 3.5 2
v 3.9 3.9 2
v 4 0 2
v 4 1.6 2
v -4 3.5 1.9
v -4 3.9 1.9
v -3.9 1.6 1.9
v -3.9 3.5 1.9
v -3.9 3.9 1.9
v -3.9 4 1.9
v -3.8 1.6 1.9
v -3.8 3.5 1.9
v -2.3 3.9 1.9
v -2.3 4 1.9
v -0.8 3.9 1.9
v -0.8 4 1.9
v 0.8 3.9 1.9
v 0.8 4 1.9
v 2.3 3.9 1.9
v 2.3 4 1.9
v 3.8 1.6 1.9
v 3.8 3.5 1.9
v 3.9 1.6 1.9
v 3.9 3.5 1.9
v 3.9 3.9 1.9
v 3.9 4 1.9
v 4 3.5 1.9
v 4 3.9 1.9
v -3.9 1.6 -1.8
v -3.9 3.5 -1.8
v -3.9 3.8 -1.8
v -3.8 0 -1.8
v -3.8 1.6 -1.8
v -3.8 2.5 -1.8
v -3.8 3.8 -1.8
v -3.8 3.9 -1.8
v -2.3 3.9 -1.8
v -0.8 3.9 -1.8
v 0.8 3.9 -1.8
v 2.3 3.9 -1.8
v 3.8 0 -1.8
v 3.8 1.6 -1.8
v 3.8 2.5 -1.8
v 3.8 3.8 -1.8
v 3.8 3.9 -1.8
v 3.9 1.6 -1.8
v 3.9 3.5 -1.8
v 3.9 3.8 -1.8
v -3.8 3.5 1.9
v -3.8 3.8 1.9
v -2.3 3.5 1.9
v -2.3 3.7 1.9
v -2.3 3.8 1.9
v -0.8 3.5 1.9
v -0.8 3.7 1.9
v -0.8 3.8 1.9
v 0.8 3.5 1.9
v 0.8 3.7 1.9
v 0.8 3.8 1.9
v 2.3 3.5 1.9
v 2.3 3.7 1.9
v 2.3 3.8 1.9
v 3.8 3.5 1.9
v 3.8 3.8 1.9
v -3.9 1.6 1.8
v -3.9 3.5 1.8
v -3.9 3.8 1.8
v -3.8 0 1.8
v -3.8 1.5 1.8
v -3.8 1.6 1.8
v -3.8 3.8 1.8
v -3.8 3.9 1.8
v -2.3 3.9 1.8
v -0.8 3.9 1.8
v 0.8 3.9 1.8
v 2.3 3.9 1.8
v 3.8 0 1.8
v 3.8 1.5 1.8
v 3.8 1.6 1.8
v 3.8 3.8 1.8
v 3.8 3.9 1.8
v 3.9 1.6 1.8
v 3.9 3.5 1.8
v 3.9 3.8 1.8
v -3.8 1.5 0.6
v -3.8 1.6 0.6
v 3.8 1.5 0.6
v 3.8 1.6 0.6
v -4 3.5 -1.9
v -4 3.9 -1.9
v -3.9 1.6 -1.9
v -3.9 3.5 -1.9
v -3.9 3.9 -1.9
v -3.9 4 -1.9
v -3.8 1.6 -1.9
v -3.8 2.5 -1.9
v -2.3 3.5 -1.9
v -2.3 3.9 -1.9
v -2.3 4 -1.9
v -0.8 3.5 -1.9
v -0.8 3.9 -1.9
v -0.8 4 -1.9
v 0.8 3.5 -1.9
v 0.8 3.9 -1.9
v 0.8 4 -1.9
v 2.3 3.5 -1.9
v 2.3 3.9 -1.9
v 2.3 4 -1.9
v 3.8 1.6 -1.9
v 3.8 2.5 -1.9
v 3.9 1.6 -1.9
v 3.9 3.5 -1.9
v 3.9 3.9 -1.9
v 3.9 4 -1.9
v 4 3.5 -1.9
v 4 3.9 -1.9
v -4 0 -2
v -4 1.6 -2
v -3.9 3.5 -2
v -3.9 3.9 -2
v -2.3 3.5 -2
v -2.3 3.9 -2
v -0.8 3.5 -2
v -0.8 3.9 -2
v 0.8 3.5 -2
v 0.8 3.9 -2
v 2.3 3.5 -2
v 2.3 3.9 -2
v 3.9 3.5 -2
v 3.9 3.9 -2
v 4 0 -2
v 4 1.6 -2
v -4 0 2
v 4 0 2
v -3.8 0 1.8
v 3.8 0 1.8
v -3.8 0 -1.8
v 3.8 0 -1.8
v -4 0 -2
v 4 0 -2
v -3.8 1.5 1.8
v 3.8 1.5 1.8
v -3.8 1.5 0.6
v 3.8 1.5 0.6
v -3.8 2.5 -1.8
v 3.8 2.5 -1.8
v -3.8 2.5 -1.9
v 3.8 2.5 -1.9
v -3.9 3.5 2
v -2.3 3.5 2
v -0.8 3.5 2
v 0.8 3.5 2
v 2.3 3.5 2
v 3.9 3.5 2
v -4 3.5 1.9
v -3.9 3.5 1.9
v -3.8 3.5 1.9
v -2.3 3.5 1.9
v -0.8 3.5 1.9
v 0.8 3.5 1.9
v 2.3 3.5 1.9
v 3.8 3.5 1.9
v 3.9 3.5 1.9
v 4 3.5 1.9
v -3.9 3.5 1.8
v 3.9 3.5 1.8
v -3.9 3.5 -1.8
v 3.9 3.5 -1.8
v -4 3.5 -1.9
v -3.9 3.5 -1.9
v -2.3 3.5 -1.9
v -0.8 3.5 -1.9
v 0.8 3.5 -1.9
v 2.3 3.5 -1.9
v 3.9 3.5 -1.9
v 4 3.5 -1.9
v -3.9 3.5 -2
v -2.3 3.5 -2
v -0.8 3.5 -2
v 0.8 3.5 -2
v 2.3 3.5 -2
v 3.9 3.5 -2
v -2.3 3.7 2
v -0.8 3.7 2
v 0.8 3.7 2
v 2.3 3.7 2
v -2.3 3.7 1.9
v -0.8 3.7 1.9
v 0.8 3.7 1.9
v 2.3 3.7 1.9
v -3.8 3.8 1.9
v -2.3 3.8 1.9
v -0.8 3.8 1.9
v 0.8 3.8 1.9
v 2.3 3.8 1.9
v 3.8 3.8 1.9
v -3.9 3.8 1.8
v -3.8 3.8 1.8
v 3.8 3.8 1.8
v 3.9 3.8 1.8
v -3.9 3.8 -1.8
v -3.8 3.8 -1.8
v 3.8 3.8 -1.8
v 3.9 3.8 -1.8
v -3.8 3.9 1.8
v -2.3 3.9 1.8
v -0.8 3.9 1.8
v 0.8 3.9 1.8
v 2.3 3.9 1.8
v 3.8 3.9 1.8
v -3.8 3.9 -1.8
v -2.3 3.9 -1.8
v -0.8 3.9 -1.8
v 0.8 3.9 -1.8
v 2.3 3.9 -1.8
v 3.8 3.9 -1.8
v -4 1.6 2
v 4 1.6 2
v -3.9 1.6 1.9
v -3.8 1.6 1.9
v 3.8 1.6 1.9
v 3.9 1.6 1.9
v -3.9 1.6 1.8
v -3.8 1.6 1.8
v 3.8 1.6 1.8
v 3.9 1.6 1.8
v -3.8 1.6 0.6
v 3.8 1.6 0.6
v -3.9 1.6 -1.8
v -3.8 1.6 -1.8
v 3.8 1.6 -1.8
v 3.9 1.6 -1.8
v -3.9 1.6 -1.9
v -3.8 1.6 -1.9
v 3.8 1.6 -1.9
v 3.9 1.6 -1.9
v -4 1.6 -2
v 4 1.6 -2
v -3.9 3.9 2
v -2.3 3.9 2
v -0.8 3.9 2
v 0.8 3.9 2
v 2.3 3.9 2
v 3.9 3.9 2
v -4 3.9 1.9
v -3.9 3.9 1.9
v -2.3 3.9 1.9
v -0.8 3.9 1.9
v 0.8 3.9 1.9
v 2.3 3.9 1.9
v 3.9 3.9 1.9
v 4 3.9 1.9
v -4 3.9 -1.9
v -3.9 3.9 -1.9
v -2.3 3.9 -1.9
v -0.8 3.9 -1.9
v 0.8 3.9 -1.9
v 2.3 3.9 -1.9
v 3.9 3.9 -1.9
v 4 3.9 -1.9
v -3.9 3.9 -2
v -2.3 3.9 -2
v -0.8 3.9 -2
v 0.8 3.9 -2
v 2.3 3.9 -2
v 3.9 3.9 -2
v -3.9 4 1.9
v -2.3 4 1.9
v -0.8 4 1.9
v 0.8 4 1.9
v 2.3 4 1.9
v 3.9 4 1.9
v -3.9 4 -1.9
v -2.3 4 -1.9
v -0.8 4 -1.9
v 0.8 4 -1.9
v 2.3 4 -1.9
v 3.9 4 -1.9

# faces
f 3/1/1 2/1/1 1/1/1
f 4/1/1 2/1/1 3/1/1
f 7/2/1 6/2/1 5/2/1
f 8/2/1 6/2/1 7/2/1
f 14/1/1 10/1/1 9/1/1
f 15/1/1 10/1/1 14/1/1
f 16/1/1 12/1/1 11/1/1
f 17/1/1 12/1/1 16/1/1
f 19/2/1 14/2/1 13/2/1
f 20/2/1 14/2/1 19/2/1
f 21/2/1 18/2/1 17/2/1
f 22/2/1 18/2/1 21/2/1
f 23/2/1 21/2/1 20/2/1
f 24/2/1 21/2/1 23/2/1
f 27/2/1 26/2/1 25/2/1
f 28/2/1 26/2/1 27/2/1
f 31/2/1 30/2/1 29/2/1
f 32/2/1 30/2/1 31/2/1
f 35/1/1 34/1/1 33/1/1
f 36/1/1 34/1/1 35/1/1
f 39/1/1 34/1/1 36/1/1
f 40/1/1 34/1/1 39/1/1
f 42/1/1 41/1/1 40/1/1
f 43/1/1 41/1/1 42/1/1
f 44/1/1 38/1/1 37/1/1
f 45/1/1 38/1/1 44/1/1
f 46/1/1 38/1/1 45/1/1
f 48/1/1 47/1/1 46/1/1
f 49/1/1 47/1/1 48/1/1
f 52/2/1 51/2/1 50/2/1
f 53/2/1 51/2/1 52/2/1
f 54/2/2 55/2/2 56/2/2
f 56/2/2 55/2/2 57/2/2
f 58/1/2 59/1/2 60/1/2
f 60/1/2 59/1/2 61/1/2
f 61/1/2 59/1/2 64/1/2
f 64/1/2 59/1/2 65/1/2
f 65/1/2 66/1/2 67/1/2
f 67/1/2 66/1/2 68/1/2
f 62/1/2 63/1/2 69/1/2
f 69/1/2 63/1/2 70/1/2
f 70/1/2 63/1/2 71/1/2
f 71/1/2 72/1/2 73/1/2
f 73/1/2 72/1/2 74/1/2
f 75/2/2 76/2/2 77/2/2
f 77/2/2 76/2/2 78/2/2
f 79/2/2 80/2/2 81/2/2
f 81/2/2 80/2/2 82/2/2
f 83/1/2 84/1/2 88/1/2
f 88/1/2 84/1/2 89/1/2
f 85/1/2 86/1/2 90/1/2
f 90/1/2 86/1/2 91/1/2
f 87/2/2 88/2/2 93/2/2
f 93/2/2 88/2/2 94/2/2
f 91/2/2 92/2/2 95/2/2
f 95/2/2 92/2/2 96/2/2
f 94/2/2 95/2/2 97/2/2
f 97/2/2 95/2/2 98/2/2
f 99/1/2 100/1/2 101/1/2
f 101/1/2 100/1/2 102/1/2
f 103/2/2 104/2/2 105/2/2
f 105/2/2 104/2/2 106/2/2
f 111/2/3 110/2/3 109/2/3
f 112/2/3 110/2/3 111/2/3
f 113/2/3 110/2/3 112/2/3
f 115/3/3 113/3/3 112/3/3
f 116/3/3 113/3/3 115/3/3
f 117/2/3 115/2/3 114/2/3
f 117/2/3 116/2/3 115/2/3
f 118/2/3 116/2/3 117/2/3
f 119/2/3 116/2/3 118/2/3
f 121/3/3 119/3/3 118/3/3
f 122/3/3 119/3/3 121/3/3
f 123/2/3 121/2/3 120/2/3
f 123/2/3 122/2/3 121/2/3
f 124/2/3 122/2/3 123/2/3
f 125/1/3 108/1/3 107/1/3
f 126/1/3 108/1/3 125/1/3
f 130/2/3 128/2/3 127/2/3
f 131/2/3 128/2/3 130/2/3
f 133/1/3 130/1/3 129/1/3
f 134/1/3 130/1/3 133/1/3
f 135/2/3 132/2/3 131/2/3
f 136/2/3 132/2/3 135/2/3
f 137/3/3 136/3/3 135/3/3
f 138/3/3 136/3/3 137/3/3
f 139/2/3 138/2/3 137/2/3
f 140/2/3 138/2/3 139/2/3
f 141/3/3 140/3/3 139/3/3
f 142/3/3 140/3/3 141/3/3
f 145/1/3 144/1/3 143/1/3
f 146/1/3 144/1/3 145/1/3
f 147/2/3 142/2/3 141/2/3
f 148/2/3 142/2/3 147/2/3
f 149/2/3 147/2/3 146/2/3
f 150/2/3 147/2/3 149/2/3
f 155/1/3 152/1/3 151/1/3
f 155/1/3 153/1/3 152/1/3
f 156/1/3 153/1/3 155/1/3
f 157/1/3 153/1/3 156/1/3
f 159/1/3 158/1/3 157/1/3
f 159/1/3 157/1/3 156/1/3
f 160/1/3 159/1/3 156/1/3
f 161/1/3 160/1/3 156/1/3
f 162/1/3 161/1/3 156/1/3
f 163/1/3 155/1/3 154/1/3
f 164/1/3 155/1/3 163/1/3
f 165/1/3 162/1/3 156/1/3
f 166/1/3 162/1/3 165/1/3
f 167/1/3 162/1/3 166/1/3
f 168/1/3 165/1/3 164/1/3
f 168/1/3 166/1/3 165/1/3
f 169/1/3 166/1/3 168/1/3
f 170/1/3 166/1/3 169/1/3
f 171/2/4 172/2/4 173/2/4
f 173/2/4 172/2/4 174/2/4
f 174/2/4 172/2/4 175/2/4
f 174/3/4 175/3/4 177/3/4
f 177/3/4 175/3/4 178/3/4
f 176/2/4 177/2/4 179/2/4
f 177/2/4 178/2/4 179/2/4
f 179/2/4 178/2/4 180/2/4
f 180/2/4 178/2/4 181/2/4
f 180/3/4 181/3/4 183/3/4
f 183/3/4 181/3/4 184/3/4
f 182/2/4 183/2/4 185/2/4
f 183/2/4 184/2/4 185/2/4
f 185/2/4 184/2/4 186/2/4
f 187/1/4 188/1/4 192/1/4
f 188/1/4 189/1/4 192/1/4
f 192/1/4 189/1/4 193/1/4
f 193/1/4 194/1/4 195/1/4
f 193/1/4 195/1/4 196/1/4
f 193/1/4 196/1/4 197/1/4
f 193/1/4 197/1/4 198/1/4
f 190/1/4 191/1/4 199/1/4
f 199/1/4 191/1/4 200/1/4
f 193/1/4 198/1/4 202/1/4
f 202/1/4 198/1/4 203/1/4
f 201/1/4 202/1/4 204/1/4
f 204/1/4 202/1/4 205/1/4
f 205/1/4 202/1/4 206/1/4
f 207/1/4 208/1/4 209/1/4
f 209/1/4 208/1/4 210/1/4
f 211/2/4 212/2/4 214/2/4
f 214/2/4 212/2/4 215/2/4
f 213/1/4 214/1/4 217/1/4
f 217/1/4 214/1/4 218/1/4
f 218/1/4 214/1/4 219/1/4
f 215/2/4 216/2/4 220/2/4
f 220/2/4 216/2/4 221/2/4
f 218/1/4 219/1/4 222/1/4
f 220/3/4 221/3/4 223/3/4
f 223/3/4 221/3/4 224/3/4
f 218/1/4 222/1/4 225/1/4
f 223/2/4 224/2/4 226/2/4
f 226/2/4 224/2/4 227/2/4
f 218/1/4 225/1/4 228/1/4
f 226/3/4 227/3/4 229/3/4
f 229/3/4 227/3/4 230/3/4
f 218/1/4 228/1/4 232/1/4
f 231/1/4 232/1/4 233/1/4
f 232/1/4 228/1/4 234/1/4
f 233/1/4 232/1/4 234/1/4
f 229/2/4 230/2/4 235/2/4
f 235/2/4 230/2/4 236/2/4
f 234/2/4 235/2/4 237/2/4
f 237/2/4 235/2/4 238/2/4
f 241/2/4 242/2/4 243/2/4
f 243/2/4 242/2/4 244/2/4
f 243/3/4 244/3/4 245/3/4
f 245/3/4 244/3/4 246/3/4
f 245/2/4 246/2/4 247/2/4
f 247/2/4 246/2/4 248/2/4
f 247/3/4 248/3/4 249/3/4
f 249/3/4 248/3/4 250/3/4
f 249/2/4 250/2/4 251/2/4
f 251/2/4 250/2/4 252/2/4
f 239/1/4 240/1/4 253/1/4
f 253/1/4 240/1/4 254/1/4
f 257/1/5 256/1/5 255/1/5
f 258/1/5 256/1/5 257/1/5
f 259/1/5 257/1/5 255/1/5
f 260/1/5 256/1/5 258/1/5
f 261/1/5 259/1/5 255/1/5
f 261/1/5 260/1/5 259/1/5
f 262/1/5 256/1/5 260/1/5
f 262/1/5 260/1/5 261/1/5
f 265/1/5 264/1/5 263/1/5
f 266/1/5 264/1/5 265/1/5
f 269/1/5 268/1/5 267/1/5
f 270/1/5 268/1/5 269/1/5
f 278/2/5 272/2/5 271/2/5
f 279/2/5 272/2/5 278/2/5
f 280/2/5 272/2/5 279/2/5
f 281/2/5 274/2/5 273/2/5
f 282/2/5 274/2/5 281/2/5
f 283/2/5 276/2/5 275/2/5
f 284/2/5 276/2/5 283/2/5
f 285/2/5 276/2/5 284/2/5
f 287/2/5 278/2/5 277/2/5
f 288/2/5 286/2/5 285/2/5
f 289/2/5 287/2/5 277/2/5
f 290/2/5 286/2/5 288/2/5
f 291/2/5 289/2/5 277/2/5
f 292/2/5 289/2/5 291/2/5
f 297/2/5 286/2/5 290/2/5
f 298/2/5 286/2/5 297/2/5
f 299/2/5 293/2/5 292/2/5
f 300/3/5 294/3/5 293/3/5
f 300/2/5 293/2/5 299/2/5
f 301/2/5 295/2/5 294/2/5
f 301/3/5 294/3/5 300/3/5
f 302/3/5 296/3/5 295/3/5
f 302/2/5 295/2/5 301/2/5
f 303/2/5 297/2/5 296/2/5
f 303/3/5 296/3/5 302/3/5
f 304/2/5 297/2/5 303/2/5
f 309/3/5 306/3/5 305/3/5
f 310/3/5 306/3/5 309/3/5
f 311/3/5 308/3/5 307/3/5
f 312/3/5 308/3/5 311/3/5
f 320/1/5 314/1/5 313/1/5
f 320/1/5 318/1/5 317/1/5
f 320/1/5 317/1/5 316/1/5
f 320/1/5 316/1/5 315/1/5
f 320/1/5 315/1/5 314/1/5
f 321/1/5 318/1/5 320/1/5
f 323/1/5 320/1/5 319/1/5
f 324/1/5 320/1/5 323/1/5
f 325/1/5 322/1/5 321/1/5
f 326/1/5 322/1/5 325/1/5
f 333/2/5 328/2/5 327/2/5
f 334/3/5 329/3/5 328/3/5
f 334/2/5 328/2/5 333/2/5
f 335/2/5 330/2/5 329/2/5
f 335/3/5 329/3/5 334/3/5
f 336/3/5 331/3/5 330/3/5
f 336/2/5 330/2/5 335/2/5
f 337/2/5 332/2/5 331/2/5
f 337/3/5 331/3/5 336/3/5
f 338/2/5 332/2/5 337/2/5
f 339/1/6 340/1/6 341/1/6
f 341/1/6 340/1/6 342/1/6
f 342/1/6 340/1/6 343/1/6
f 343/1/6 340/1/6 344/1/6
f 339/1/6 341/1/6 345/1/6
f 342/1/6 343/1/6 346/1/6
f 346/1/6 343/1/6 347/1/6
f 344/1/6 340/1/6 348/1/6
f 346/1/6 347/1/6 349/1/6
f 347/1/6 348/1/6 349/1/6
f 345/1/6 346/1/6 349/1/6
f 349/1/6 348/1/6 350/1/6
f 339/1/6 345/1/6 351/1/6
f 345/1/6 349/1/6 351/1/6
f 351/1/6 349/1/6 352/1/6
f 350/1/6 348/1/6 353/1/6
f 348/1/6 340/1/6 354/1/6
f 353/1/6 348/1/6 354/1/6
f 339/1/6 351/1/6 355/1/6
f 352/1/6 353/1/6 356/1/6
f 356/1/6 353/1/6 357/1/6
f 354/1/6 340/1/6 358/1/6
f 339/1/6 355/1/6 359/1/6
f 357/1/6 358/1/6 359/1/6
f 356/1/6 357/1/6 359/1/6
f 355/1/6 356/1/6 359/1/6
f 358/1/6 340/1/6 360/1/6
f 359/1/6 358/1/6 360/1/6
f 361/2/6 362/2/6 368/2/6
f 362/3/6 363/3/6 369/3/6
f 368/2/6 362/2/6 369/2/6
f 363/2/6 364/2/6 370/2/6
f 369/3/6 363/3/6 370/3/6
f 364/3/6 365/3/6 371/3/6
f 370/2/6 364/2/6 371/2/6
f 365/2/6 366/2/6 372/2/6
f 371/3/6 365/3/6 372/3/6
f 372/2/6 366/2/6 373/2/6
f 367/2/6 368/2/6 375/2/6
f 375/2/6 368/2/6 376/2/6
f 373/2/6 374/2/6 381/2/6
f 381/2/6 374/2/6 382/2/6
f 376/2/6 377/2/6 383/2/6
f 377/3/6 378/3/6 384/3/6
f 383/2/6 377/2/6 384/2/6
f 378/2/6 379/2/6 385/2/6
f 384/3/6 378/3/6 385/3/6
f 379/3/6 380/3/6 386/3/6
f 385/2/6 379/2/6 386/2/6
f 380/2/6 381/2/6 387/2/6
f 386/3/6 380/3/6 387/3/6
f 387/2/6 381/2/6 388/2/6
f 389/2/6 390/2/6 395/2/6
f 390/3/6 391/3/6 396/3/6
f 395/2/6 390/2/6 396/2/6
f 391/2/6 392/2/6 397/2/6
f 396/3/6 391/3/6 397/3/6
f 392/3/6 393/3/6 398/3/6
f 397/2/6 392/2/6 398/2/6
f 393/2/6 394/2/6 399/2/6
f 398/3/6 393/3/6 399/3/6
f 399/2/6 394/2/6 400/2/6
